%TF.GenerationSoftware,KiCad,Pcbnew,7.0.6+dfsg-1*%
%TF.CreationDate,2023-07-26T00:10:48-03:00*%
%TF.ProjectId,PWM_breakout_board,50574d5f-6272-4656-916b-6f75745f626f,rev?*%
%TF.SameCoordinates,Original*%
%TF.FileFunction,Legend,Bot*%
%TF.FilePolarity,Positive*%
%FSLAX46Y46*%
G04 Gerber Fmt 4.6, Leading zero omitted, Abs format (unit mm)*
G04 Created by KiCad (PCBNEW 7.0.6+dfsg-1) date 2023-07-26 00:10:48*
%MOMM*%
%LPD*%
G01*
G04 APERTURE LIST*
%ADD10C,0.300000*%
%ADD11C,0.150000*%
%ADD12C,0.120000*%
G04 APERTURE END LIST*
D10*
X162445489Y-82970828D02*
X162445489Y-81470828D01*
X162445489Y-81470828D02*
X162088346Y-81470828D01*
X162088346Y-81470828D02*
X161874060Y-81542257D01*
X161874060Y-81542257D02*
X161731203Y-81685114D01*
X161731203Y-81685114D02*
X161659774Y-81827971D01*
X161659774Y-81827971D02*
X161588346Y-82113685D01*
X161588346Y-82113685D02*
X161588346Y-82327971D01*
X161588346Y-82327971D02*
X161659774Y-82613685D01*
X161659774Y-82613685D02*
X161731203Y-82756542D01*
X161731203Y-82756542D02*
X161874060Y-82899400D01*
X161874060Y-82899400D02*
X162088346Y-82970828D01*
X162088346Y-82970828D02*
X162445489Y-82970828D01*
X160945489Y-82970828D02*
X160945489Y-81470828D01*
X160945489Y-81470828D02*
X160445489Y-82542257D01*
X160445489Y-82542257D02*
X159945489Y-81470828D01*
X159945489Y-81470828D02*
X159945489Y-82970828D01*
X159374060Y-81470828D02*
X158374060Y-82970828D01*
X158374060Y-81470828D02*
X159374060Y-82970828D01*
X156731203Y-82899400D02*
X156516918Y-82970828D01*
X156516918Y-82970828D02*
X156159775Y-82970828D01*
X156159775Y-82970828D02*
X156016918Y-82899400D01*
X156016918Y-82899400D02*
X155945489Y-82827971D01*
X155945489Y-82827971D02*
X155874060Y-82685114D01*
X155874060Y-82685114D02*
X155874060Y-82542257D01*
X155874060Y-82542257D02*
X155945489Y-82399400D01*
X155945489Y-82399400D02*
X156016918Y-82327971D01*
X156016918Y-82327971D02*
X156159775Y-82256542D01*
X156159775Y-82256542D02*
X156445489Y-82185114D01*
X156445489Y-82185114D02*
X156588346Y-82113685D01*
X156588346Y-82113685D02*
X156659775Y-82042257D01*
X156659775Y-82042257D02*
X156731203Y-81899400D01*
X156731203Y-81899400D02*
X156731203Y-81756542D01*
X156731203Y-81756542D02*
X156659775Y-81613685D01*
X156659775Y-81613685D02*
X156588346Y-81542257D01*
X156588346Y-81542257D02*
X156445489Y-81470828D01*
X156445489Y-81470828D02*
X156088346Y-81470828D01*
X156088346Y-81470828D02*
X155874060Y-81542257D01*
X155231204Y-82185114D02*
X154731204Y-82185114D01*
X154516918Y-82970828D02*
X155231204Y-82970828D01*
X155231204Y-82970828D02*
X155231204Y-81470828D01*
X155231204Y-81470828D02*
X154516918Y-81470828D01*
X153016918Y-82970828D02*
X153516918Y-82256542D01*
X153874061Y-82970828D02*
X153874061Y-81470828D01*
X153874061Y-81470828D02*
X153302632Y-81470828D01*
X153302632Y-81470828D02*
X153159775Y-81542257D01*
X153159775Y-81542257D02*
X153088346Y-81613685D01*
X153088346Y-81613685D02*
X153016918Y-81756542D01*
X153016918Y-81756542D02*
X153016918Y-81970828D01*
X153016918Y-81970828D02*
X153088346Y-82113685D01*
X153088346Y-82113685D02*
X153159775Y-82185114D01*
X153159775Y-82185114D02*
X153302632Y-82256542D01*
X153302632Y-82256542D02*
X153874061Y-82256542D01*
X152588346Y-81470828D02*
X152088346Y-82970828D01*
X152088346Y-82970828D02*
X151588346Y-81470828D01*
X150802632Y-81470828D02*
X150516918Y-81470828D01*
X150516918Y-81470828D02*
X150374061Y-81542257D01*
X150374061Y-81542257D02*
X150231204Y-81685114D01*
X150231204Y-81685114D02*
X150159775Y-81970828D01*
X150159775Y-81970828D02*
X150159775Y-82470828D01*
X150159775Y-82470828D02*
X150231204Y-82756542D01*
X150231204Y-82756542D02*
X150374061Y-82899400D01*
X150374061Y-82899400D02*
X150516918Y-82970828D01*
X150516918Y-82970828D02*
X150802632Y-82970828D01*
X150802632Y-82970828D02*
X150945490Y-82899400D01*
X150945490Y-82899400D02*
X151088347Y-82756542D01*
X151088347Y-82756542D02*
X151159775Y-82470828D01*
X151159775Y-82470828D02*
X151159775Y-81970828D01*
X151159775Y-81970828D02*
X151088347Y-81685114D01*
X151088347Y-81685114D02*
X150945490Y-81542257D01*
X150945490Y-81542257D02*
X150802632Y-81470828D01*
X148445489Y-82899400D02*
X148231204Y-82970828D01*
X148231204Y-82970828D02*
X147874061Y-82970828D01*
X147874061Y-82970828D02*
X147731204Y-82899400D01*
X147731204Y-82899400D02*
X147659775Y-82827971D01*
X147659775Y-82827971D02*
X147588346Y-82685114D01*
X147588346Y-82685114D02*
X147588346Y-82542257D01*
X147588346Y-82542257D02*
X147659775Y-82399400D01*
X147659775Y-82399400D02*
X147731204Y-82327971D01*
X147731204Y-82327971D02*
X147874061Y-82256542D01*
X147874061Y-82256542D02*
X148159775Y-82185114D01*
X148159775Y-82185114D02*
X148302632Y-82113685D01*
X148302632Y-82113685D02*
X148374061Y-82042257D01*
X148374061Y-82042257D02*
X148445489Y-81899400D01*
X148445489Y-81899400D02*
X148445489Y-81756542D01*
X148445489Y-81756542D02*
X148374061Y-81613685D01*
X148374061Y-81613685D02*
X148302632Y-81542257D01*
X148302632Y-81542257D02*
X148159775Y-81470828D01*
X148159775Y-81470828D02*
X147802632Y-81470828D01*
X147802632Y-81470828D02*
X147588346Y-81542257D01*
X146945490Y-82970828D02*
X146945490Y-81470828D01*
X146945490Y-81470828D02*
X146374061Y-81470828D01*
X146374061Y-81470828D02*
X146231204Y-81542257D01*
X146231204Y-81542257D02*
X146159775Y-81613685D01*
X146159775Y-81613685D02*
X146088347Y-81756542D01*
X146088347Y-81756542D02*
X146088347Y-81970828D01*
X146088347Y-81970828D02*
X146159775Y-82113685D01*
X146159775Y-82113685D02*
X146231204Y-82185114D01*
X146231204Y-82185114D02*
X146374061Y-82256542D01*
X146374061Y-82256542D02*
X146945490Y-82256542D01*
X144731204Y-82970828D02*
X145445490Y-82970828D01*
X145445490Y-82970828D02*
X145445490Y-81470828D01*
X144231204Y-82970828D02*
X144231204Y-81470828D01*
X143731203Y-81470828D02*
X142874061Y-81470828D01*
X143302632Y-82970828D02*
X143302632Y-81470828D01*
X142588346Y-81470828D02*
X141731204Y-81470828D01*
X142159775Y-82970828D02*
X142159775Y-81470828D01*
X141231204Y-82185114D02*
X140731204Y-82185114D01*
X140516918Y-82970828D02*
X141231204Y-82970828D01*
X141231204Y-82970828D02*
X141231204Y-81470828D01*
X141231204Y-81470828D02*
X140516918Y-81470828D01*
X139016918Y-82970828D02*
X139516918Y-82256542D01*
X139874061Y-82970828D02*
X139874061Y-81470828D01*
X139874061Y-81470828D02*
X139302632Y-81470828D01*
X139302632Y-81470828D02*
X139159775Y-81542257D01*
X139159775Y-81542257D02*
X139088346Y-81613685D01*
X139088346Y-81613685D02*
X139016918Y-81756542D01*
X139016918Y-81756542D02*
X139016918Y-81970828D01*
X139016918Y-81970828D02*
X139088346Y-82113685D01*
X139088346Y-82113685D02*
X139159775Y-82185114D01*
X139159775Y-82185114D02*
X139302632Y-82256542D01*
X139302632Y-82256542D02*
X139874061Y-82256542D01*
X162445489Y-85385828D02*
X162445489Y-84385828D01*
X162445489Y-84671542D02*
X162374060Y-84528685D01*
X162374060Y-84528685D02*
X162302632Y-84457257D01*
X162302632Y-84457257D02*
X162159774Y-84385828D01*
X162159774Y-84385828D02*
X162016917Y-84385828D01*
X160945489Y-85314400D02*
X161088346Y-85385828D01*
X161088346Y-85385828D02*
X161374061Y-85385828D01*
X161374061Y-85385828D02*
X161516918Y-85314400D01*
X161516918Y-85314400D02*
X161588346Y-85171542D01*
X161588346Y-85171542D02*
X161588346Y-84600114D01*
X161588346Y-84600114D02*
X161516918Y-84457257D01*
X161516918Y-84457257D02*
X161374061Y-84385828D01*
X161374061Y-84385828D02*
X161088346Y-84385828D01*
X161088346Y-84385828D02*
X160945489Y-84457257D01*
X160945489Y-84457257D02*
X160874061Y-84600114D01*
X160874061Y-84600114D02*
X160874061Y-84742971D01*
X160874061Y-84742971D02*
X161588346Y-84885828D01*
X160374061Y-84385828D02*
X160016918Y-85385828D01*
X160016918Y-85385828D02*
X159659775Y-84385828D01*
X157302633Y-85385828D02*
X157302633Y-84600114D01*
X157302633Y-84600114D02*
X157374061Y-84457257D01*
X157374061Y-84457257D02*
X157516918Y-84385828D01*
X157516918Y-84385828D02*
X157802633Y-84385828D01*
X157802633Y-84385828D02*
X157945490Y-84457257D01*
X157302633Y-85314400D02*
X157445490Y-85385828D01*
X157445490Y-85385828D02*
X157802633Y-85385828D01*
X157802633Y-85385828D02*
X157945490Y-85314400D01*
X157945490Y-85314400D02*
X158016918Y-85171542D01*
X158016918Y-85171542D02*
X158016918Y-85028685D01*
X158016918Y-85028685D02*
X157945490Y-84885828D01*
X157945490Y-84885828D02*
X157802633Y-84814400D01*
X157802633Y-84814400D02*
X157445490Y-84814400D01*
X157445490Y-84814400D02*
X157302633Y-84742971D01*
X155445490Y-84814400D02*
X154302633Y-84814400D01*
X152516918Y-84028685D02*
X152445490Y-83957257D01*
X152445490Y-83957257D02*
X152302633Y-83885828D01*
X152302633Y-83885828D02*
X151945490Y-83885828D01*
X151945490Y-83885828D02*
X151802633Y-83957257D01*
X151802633Y-83957257D02*
X151731204Y-84028685D01*
X151731204Y-84028685D02*
X151659775Y-84171542D01*
X151659775Y-84171542D02*
X151659775Y-84314400D01*
X151659775Y-84314400D02*
X151731204Y-84528685D01*
X151731204Y-84528685D02*
X152588347Y-85385828D01*
X152588347Y-85385828D02*
X151659775Y-85385828D01*
X150731204Y-83885828D02*
X150588347Y-83885828D01*
X150588347Y-83885828D02*
X150445490Y-83957257D01*
X150445490Y-83957257D02*
X150374062Y-84028685D01*
X150374062Y-84028685D02*
X150302633Y-84171542D01*
X150302633Y-84171542D02*
X150231204Y-84457257D01*
X150231204Y-84457257D02*
X150231204Y-84814400D01*
X150231204Y-84814400D02*
X150302633Y-85100114D01*
X150302633Y-85100114D02*
X150374062Y-85242971D01*
X150374062Y-85242971D02*
X150445490Y-85314400D01*
X150445490Y-85314400D02*
X150588347Y-85385828D01*
X150588347Y-85385828D02*
X150731204Y-85385828D01*
X150731204Y-85385828D02*
X150874062Y-85314400D01*
X150874062Y-85314400D02*
X150945490Y-85242971D01*
X150945490Y-85242971D02*
X151016919Y-85100114D01*
X151016919Y-85100114D02*
X151088347Y-84814400D01*
X151088347Y-84814400D02*
X151088347Y-84457257D01*
X151088347Y-84457257D02*
X151016919Y-84171542D01*
X151016919Y-84171542D02*
X150945490Y-84028685D01*
X150945490Y-84028685D02*
X150874062Y-83957257D01*
X150874062Y-83957257D02*
X150731204Y-83885828D01*
X149659776Y-84028685D02*
X149588348Y-83957257D01*
X149588348Y-83957257D02*
X149445491Y-83885828D01*
X149445491Y-83885828D02*
X149088348Y-83885828D01*
X149088348Y-83885828D02*
X148945491Y-83957257D01*
X148945491Y-83957257D02*
X148874062Y-84028685D01*
X148874062Y-84028685D02*
X148802633Y-84171542D01*
X148802633Y-84171542D02*
X148802633Y-84314400D01*
X148802633Y-84314400D02*
X148874062Y-84528685D01*
X148874062Y-84528685D02*
X149731205Y-85385828D01*
X149731205Y-85385828D02*
X148802633Y-85385828D01*
X148302634Y-83885828D02*
X147374062Y-83885828D01*
X147374062Y-83885828D02*
X147874062Y-84457257D01*
X147874062Y-84457257D02*
X147659777Y-84457257D01*
X147659777Y-84457257D02*
X147516920Y-84528685D01*
X147516920Y-84528685D02*
X147445491Y-84600114D01*
X147445491Y-84600114D02*
X147374062Y-84742971D01*
X147374062Y-84742971D02*
X147374062Y-85100114D01*
X147374062Y-85100114D02*
X147445491Y-85242971D01*
X147445491Y-85242971D02*
X147516920Y-85314400D01*
X147516920Y-85314400D02*
X147659777Y-85385828D01*
X147659777Y-85385828D02*
X148088348Y-85385828D01*
X148088348Y-85385828D02*
X148231205Y-85314400D01*
X148231205Y-85314400D02*
X148302634Y-85242971D01*
X162445489Y-87800828D02*
X162445489Y-86300828D01*
X162445489Y-86300828D02*
X162088346Y-86300828D01*
X162088346Y-86300828D02*
X161874060Y-86372257D01*
X161874060Y-86372257D02*
X161731203Y-86515114D01*
X161731203Y-86515114D02*
X161659774Y-86657971D01*
X161659774Y-86657971D02*
X161588346Y-86943685D01*
X161588346Y-86943685D02*
X161588346Y-87157971D01*
X161588346Y-87157971D02*
X161659774Y-87443685D01*
X161659774Y-87443685D02*
X161731203Y-87586542D01*
X161731203Y-87586542D02*
X161874060Y-87729400D01*
X161874060Y-87729400D02*
X162088346Y-87800828D01*
X162088346Y-87800828D02*
X162445489Y-87800828D01*
X160945489Y-87015114D02*
X160445489Y-87015114D01*
X160231203Y-87800828D02*
X160945489Y-87800828D01*
X160945489Y-87800828D02*
X160945489Y-86300828D01*
X160945489Y-86300828D02*
X160231203Y-86300828D01*
X158874060Y-87800828D02*
X159588346Y-87800828D01*
X159588346Y-87800828D02*
X159588346Y-86300828D01*
X158374060Y-87015114D02*
X157874060Y-87015114D01*
X157659774Y-87800828D02*
X158374060Y-87800828D01*
X158374060Y-87800828D02*
X158374060Y-86300828D01*
X158374060Y-86300828D02*
X157659774Y-86300828D01*
X157016917Y-87800828D02*
X157016917Y-86300828D01*
X157016917Y-86300828D02*
X156659774Y-86300828D01*
X156659774Y-86300828D02*
X156445488Y-86372257D01*
X156445488Y-86372257D02*
X156302631Y-86515114D01*
X156302631Y-86515114D02*
X156231202Y-86657971D01*
X156231202Y-86657971D02*
X156159774Y-86943685D01*
X156159774Y-86943685D02*
X156159774Y-87157971D01*
X156159774Y-87157971D02*
X156231202Y-87443685D01*
X156231202Y-87443685D02*
X156302631Y-87586542D01*
X156302631Y-87586542D02*
X156445488Y-87729400D01*
X156445488Y-87729400D02*
X156659774Y-87800828D01*
X156659774Y-87800828D02*
X157016917Y-87800828D01*
X154374060Y-87229400D02*
X153231203Y-87229400D01*
X151445488Y-87372257D02*
X150731203Y-87372257D01*
X151588345Y-87800828D02*
X151088345Y-86300828D01*
X151088345Y-86300828D02*
X150588345Y-87800828D01*
X150088346Y-87800828D02*
X150088346Y-86300828D01*
X150088346Y-86300828D02*
X149588346Y-87372257D01*
X149588346Y-87372257D02*
X149088346Y-86300828D01*
X149088346Y-86300828D02*
X149088346Y-87800828D01*
X148374060Y-87800828D02*
X148374060Y-86300828D01*
X147659774Y-87015114D02*
X147159774Y-87015114D01*
X146945488Y-87800828D02*
X147659774Y-87800828D01*
X147659774Y-87800828D02*
X147659774Y-86300828D01*
X147659774Y-86300828D02*
X146945488Y-86300828D01*
X146302631Y-87800828D02*
X146302631Y-86300828D01*
X144731202Y-87800828D02*
X145231202Y-87086542D01*
X145588345Y-87800828D02*
X145588345Y-86300828D01*
X145588345Y-86300828D02*
X145016916Y-86300828D01*
X145016916Y-86300828D02*
X144874059Y-86372257D01*
X144874059Y-86372257D02*
X144802630Y-86443685D01*
X144802630Y-86443685D02*
X144731202Y-86586542D01*
X144731202Y-86586542D02*
X144731202Y-86800828D01*
X144731202Y-86800828D02*
X144802630Y-86943685D01*
X144802630Y-86943685D02*
X144874059Y-87015114D01*
X144874059Y-87015114D02*
X145016916Y-87086542D01*
X145016916Y-87086542D02*
X145588345Y-87086542D01*
X143802630Y-86300828D02*
X143516916Y-86300828D01*
X143516916Y-86300828D02*
X143374059Y-86372257D01*
X143374059Y-86372257D02*
X143231202Y-86515114D01*
X143231202Y-86515114D02*
X143159773Y-86800828D01*
X143159773Y-86800828D02*
X143159773Y-87300828D01*
X143159773Y-87300828D02*
X143231202Y-87586542D01*
X143231202Y-87586542D02*
X143374059Y-87729400D01*
X143374059Y-87729400D02*
X143516916Y-87800828D01*
X143516916Y-87800828D02*
X143802630Y-87800828D01*
X143802630Y-87800828D02*
X143945488Y-87729400D01*
X143945488Y-87729400D02*
X144088345Y-87586542D01*
X144088345Y-87586542D02*
X144159773Y-87300828D01*
X144159773Y-87300828D02*
X144159773Y-86800828D01*
X144159773Y-86800828D02*
X144088345Y-86515114D01*
X144088345Y-86515114D02*
X143945488Y-86372257D01*
X143945488Y-86372257D02*
X143802630Y-86300828D01*
D11*
X130875975Y-78004819D02*
X130875975Y-78719104D01*
X130875975Y-78719104D02*
X130923594Y-78861961D01*
X130923594Y-78861961D02*
X131018832Y-78957200D01*
X131018832Y-78957200D02*
X131161689Y-79004819D01*
X131161689Y-79004819D02*
X131256927Y-79004819D01*
X130447403Y-78100057D02*
X130399784Y-78052438D01*
X130399784Y-78052438D02*
X130304546Y-78004819D01*
X130304546Y-78004819D02*
X130066451Y-78004819D01*
X130066451Y-78004819D02*
X129971213Y-78052438D01*
X129971213Y-78052438D02*
X129923594Y-78100057D01*
X129923594Y-78100057D02*
X129875975Y-78195295D01*
X129875975Y-78195295D02*
X129875975Y-78290533D01*
X129875975Y-78290533D02*
X129923594Y-78433390D01*
X129923594Y-78433390D02*
X130495022Y-79004819D01*
X130495022Y-79004819D02*
X129875975Y-79004819D01*
X140357143Y-75454819D02*
X140357143Y-74454819D01*
X140833333Y-74788152D02*
X140833333Y-75454819D01*
X140833333Y-74883390D02*
X140880952Y-74835771D01*
X140880952Y-74835771D02*
X140976190Y-74788152D01*
X140976190Y-74788152D02*
X141119047Y-74788152D01*
X141119047Y-74788152D02*
X141214285Y-74835771D01*
X141214285Y-74835771D02*
X141261904Y-74931009D01*
X141261904Y-74931009D02*
X141261904Y-75454819D01*
X141738095Y-74788152D02*
X141738095Y-75788152D01*
X141738095Y-74835771D02*
X141833333Y-74788152D01*
X141833333Y-74788152D02*
X142023809Y-74788152D01*
X142023809Y-74788152D02*
X142119047Y-74835771D01*
X142119047Y-74835771D02*
X142166666Y-74883390D01*
X142166666Y-74883390D02*
X142214285Y-74978628D01*
X142214285Y-74978628D02*
X142214285Y-75264342D01*
X142214285Y-75264342D02*
X142166666Y-75359580D01*
X142166666Y-75359580D02*
X142119047Y-75407200D01*
X142119047Y-75407200D02*
X142023809Y-75454819D01*
X142023809Y-75454819D02*
X141833333Y-75454819D01*
X141833333Y-75454819D02*
X141738095Y-75407200D01*
X143071428Y-74788152D02*
X143071428Y-75454819D01*
X142642857Y-74788152D02*
X142642857Y-75311961D01*
X142642857Y-75311961D02*
X142690476Y-75407200D01*
X142690476Y-75407200D02*
X142785714Y-75454819D01*
X142785714Y-75454819D02*
X142928571Y-75454819D01*
X142928571Y-75454819D02*
X143023809Y-75407200D01*
X143023809Y-75407200D02*
X143071428Y-75359580D01*
X143404762Y-74788152D02*
X143785714Y-74788152D01*
X143547619Y-74454819D02*
X143547619Y-75311961D01*
X143547619Y-75311961D02*
X143595238Y-75407200D01*
X143595238Y-75407200D02*
X143690476Y-75454819D01*
X143690476Y-75454819D02*
X143785714Y-75454819D01*
X107023809Y-75454819D02*
X107023809Y-74454819D01*
X107023809Y-74454819D02*
X107404761Y-74454819D01*
X107404761Y-74454819D02*
X107499999Y-74502438D01*
X107499999Y-74502438D02*
X107547618Y-74550057D01*
X107547618Y-74550057D02*
X107595237Y-74645295D01*
X107595237Y-74645295D02*
X107595237Y-74788152D01*
X107595237Y-74788152D02*
X107547618Y-74883390D01*
X107547618Y-74883390D02*
X107499999Y-74931009D01*
X107499999Y-74931009D02*
X107404761Y-74978628D01*
X107404761Y-74978628D02*
X107023809Y-74978628D01*
X108166666Y-75454819D02*
X108071428Y-75407200D01*
X108071428Y-75407200D02*
X108023809Y-75359580D01*
X108023809Y-75359580D02*
X107976190Y-75264342D01*
X107976190Y-75264342D02*
X107976190Y-74978628D01*
X107976190Y-74978628D02*
X108023809Y-74883390D01*
X108023809Y-74883390D02*
X108071428Y-74835771D01*
X108071428Y-74835771D02*
X108166666Y-74788152D01*
X108166666Y-74788152D02*
X108309523Y-74788152D01*
X108309523Y-74788152D02*
X108404761Y-74835771D01*
X108404761Y-74835771D02*
X108452380Y-74883390D01*
X108452380Y-74883390D02*
X108499999Y-74978628D01*
X108499999Y-74978628D02*
X108499999Y-75264342D01*
X108499999Y-75264342D02*
X108452380Y-75359580D01*
X108452380Y-75359580D02*
X108404761Y-75407200D01*
X108404761Y-75407200D02*
X108309523Y-75454819D01*
X108309523Y-75454819D02*
X108166666Y-75454819D01*
X108833333Y-74788152D02*
X109023809Y-75454819D01*
X109023809Y-75454819D02*
X109214285Y-74978628D01*
X109214285Y-74978628D02*
X109404761Y-75454819D01*
X109404761Y-75454819D02*
X109595237Y-74788152D01*
X110357142Y-75407200D02*
X110261904Y-75454819D01*
X110261904Y-75454819D02*
X110071428Y-75454819D01*
X110071428Y-75454819D02*
X109976190Y-75407200D01*
X109976190Y-75407200D02*
X109928571Y-75311961D01*
X109928571Y-75311961D02*
X109928571Y-74931009D01*
X109928571Y-74931009D02*
X109976190Y-74835771D01*
X109976190Y-74835771D02*
X110071428Y-74788152D01*
X110071428Y-74788152D02*
X110261904Y-74788152D01*
X110261904Y-74788152D02*
X110357142Y-74835771D01*
X110357142Y-74835771D02*
X110404761Y-74931009D01*
X110404761Y-74931009D02*
X110404761Y-75026247D01*
X110404761Y-75026247D02*
X109928571Y-75121485D01*
X110833333Y-75454819D02*
X110833333Y-74788152D01*
X110833333Y-74978628D02*
X110880952Y-74883390D01*
X110880952Y-74883390D02*
X110928571Y-74835771D01*
X110928571Y-74835771D02*
X111023809Y-74788152D01*
X111023809Y-74788152D02*
X111119047Y-74788152D01*
D12*
%TO.C,J2*%
X122692642Y-77750000D02*
X122692642Y-76500000D01*
X122982642Y-71490000D02*
X138102642Y-71490000D01*
X122982642Y-77460000D02*
X122982642Y-71490000D01*
X122992642Y-75200000D02*
X123742642Y-75200000D01*
X122992642Y-76700000D02*
X124792642Y-76700000D01*
X122992642Y-77450000D02*
X122992642Y-76700000D01*
X123742642Y-75200000D02*
X123742642Y-73860000D01*
X123942642Y-77750000D02*
X122692642Y-77750000D01*
X124792642Y-76700000D02*
X124792642Y-77450000D01*
X124792642Y-77450000D02*
X122992642Y-77450000D01*
X126292642Y-76700000D02*
X134792642Y-76700000D01*
X126292642Y-77450000D02*
X126292642Y-76700000D01*
X130542642Y-72250000D02*
X124802642Y-72250000D01*
X134792642Y-76700000D02*
X134792642Y-77450000D01*
X134792642Y-77450000D02*
X126292642Y-77450000D01*
X136292642Y-76700000D02*
X138092642Y-76700000D01*
X136292642Y-77450000D02*
X136292642Y-76700000D01*
X137342642Y-72250000D02*
X130542642Y-72250000D01*
X137342642Y-75200000D02*
X137342642Y-72250000D01*
X138092642Y-75200000D02*
X137342642Y-75200000D01*
X138092642Y-76700000D02*
X138092642Y-77450000D01*
X138092642Y-77450000D02*
X136292642Y-77450000D01*
X138102642Y-71490000D02*
X138102642Y-77460000D01*
X138102642Y-77460000D02*
X122982642Y-77460000D01*
%TO.C,J1*%
X95920000Y-71190000D02*
X106080000Y-71190000D01*
X95920000Y-78810000D02*
X95920000Y-71190000D01*
X106080000Y-71190000D02*
X106080000Y-78810000D01*
X106080000Y-72460000D02*
X95920000Y-72460000D01*
X106080000Y-78810000D02*
X95920000Y-78810000D01*
%TD*%
M02*
