%TF.GenerationSoftware,KiCad,Pcbnew,7.0.6+dfsg-1*%
%TF.CreationDate,2023-07-26T00:10:48-03:00*%
%TF.ProjectId,PWM_breakout_board,50574d5f-6272-4656-916b-6f75745f626f,rev?*%
%TF.SameCoordinates,Original*%
%TF.FileFunction,Copper,L2,Bot*%
%TF.FilePolarity,Positive*%
%FSLAX46Y46*%
G04 Gerber Fmt 4.6, Leading zero omitted, Abs format (unit mm)*
G04 Created by KiCad (PCBNEW 7.0.6+dfsg-1) date 2023-07-26 00:10:48*
%MOMM*%
%LPD*%
G01*
G04 APERTURE LIST*
G04 Aperture macros list*
%AMRoundRect*
0 Rectangle with rounded corners*
0 $1 Rounding radius*
0 $2 $3 $4 $5 $6 $7 $8 $9 X,Y pos of 4 corners*
0 Add a 4 corners polygon primitive as box body*
4,1,4,$2,$3,$4,$5,$6,$7,$8,$9,$2,$3,0*
0 Add four circle primitives for the rounded corners*
1,1,$1+$1,$2,$3*
1,1,$1+$1,$4,$5*
1,1,$1+$1,$6,$7*
1,1,$1+$1,$8,$9*
0 Add four rect primitives between the rounded corners*
20,1,$1+$1,$2,$3,$4,$5,0*
20,1,$1+$1,$4,$5,$6,$7,0*
20,1,$1+$1,$6,$7,$8,$9,0*
20,1,$1+$1,$8,$9,$2,$3,0*%
G04 Aperture macros list end*
%TA.AperFunction,ComponentPad*%
%ADD10R,3.000000X3.000000*%
%TD*%
%TA.AperFunction,ComponentPad*%
%ADD11C,3.000000*%
%TD*%
%TA.AperFunction,ComponentPad*%
%ADD12RoundRect,0.250000X-0.600000X-0.725000X0.600000X-0.725000X0.600000X0.725000X-0.600000X0.725000X0*%
%TD*%
%TA.AperFunction,ComponentPad*%
%ADD13O,1.700000X1.950000*%
%TD*%
%TA.AperFunction,Conductor*%
%ADD14C,1.000000*%
%TD*%
G04 APERTURE END LIST*
D10*
%TO.P,J5,1,Pin_1*%
%TO.N,VCC*%
X135920000Y-102542642D03*
D11*
%TO.P,J5,2,Pin_2*%
%TO.N,SIG3*%
X141000000Y-102542642D03*
%TO.P,J5,3,Pin_3*%
%TO.N,GND*%
X146080000Y-102542642D03*
%TD*%
D10*
%TO.P,J4,1,Pin_1*%
%TO.N,VCC*%
X112434214Y-102542642D03*
D11*
%TO.P,J4,2,Pin_2*%
%TO.N,SIG2*%
X117514214Y-102542642D03*
%TO.P,J4,3,Pin_3*%
%TO.N,GND*%
X122594214Y-102542642D03*
%TD*%
D10*
%TO.P,J6,1,Pin_1*%
%TO.N,VCC*%
X159405786Y-102542642D03*
D11*
%TO.P,J6,2,Pin_2*%
%TO.N,SIG4*%
X164485786Y-102542642D03*
%TO.P,J6,3,Pin_3*%
%TO.N,GND*%
X169565786Y-102542642D03*
%TD*%
D10*
%TO.P,J3,1,Pin_1*%
%TO.N,VCC*%
X88948428Y-102542642D03*
D11*
%TO.P,J3,2,Pin_2*%
%TO.N,SIG1*%
X94028428Y-102542642D03*
%TO.P,J3,3,Pin_3*%
%TO.N,GND*%
X99108428Y-102542642D03*
%TD*%
D12*
%TO.P,J2,1,Pin_1*%
%TO.N,SIG1*%
X125542642Y-75000000D03*
D13*
%TO.P,J2,2,Pin_2*%
%TO.N,SIG2*%
X128042642Y-75000000D03*
%TO.P,J2,3,Pin_3*%
%TO.N,SIG3*%
X130542642Y-75000000D03*
%TO.P,J2,4,Pin_4*%
%TO.N,SIG4*%
X133042642Y-75000000D03*
%TO.P,J2,5,Pin_5*%
%TO.N,GND*%
X135542642Y-75000000D03*
%TD*%
D10*
%TO.P,J1,1,Pin_1*%
%TO.N,VCC*%
X98460000Y-75000000D03*
D11*
%TO.P,J1,2,Pin_2*%
%TO.N,GND*%
X103540000Y-75000000D03*
%TD*%
D14*
%TO.N,SIG1*%
X125542642Y-75000000D02*
X125542642Y-85792642D01*
X113542642Y-97792642D02*
X96042642Y-97792642D01*
X96042642Y-97792642D02*
X94028428Y-99806856D01*
X125542642Y-85792642D02*
X113542642Y-97792642D01*
X94028428Y-99806856D02*
X94028428Y-102542642D01*
%TO.N,SIG2*%
X117514214Y-100071070D02*
X117514214Y-102542642D01*
X128042642Y-89542642D02*
X117514214Y-100071070D01*
X128042642Y-75000000D02*
X128042642Y-89542642D01*
%TO.N,SIG3*%
X130542642Y-89542642D02*
X141000000Y-100000000D01*
X141000000Y-100000000D02*
X141000000Y-102542642D01*
X130542642Y-75000000D02*
X130542642Y-89542642D01*
%TO.N,SIG4*%
X162292642Y-97792642D02*
X164485786Y-99985786D01*
X133042642Y-85542642D02*
X145292642Y-97792642D01*
X145292642Y-97792642D02*
X162292642Y-97792642D01*
X164485786Y-99985786D02*
X164485786Y-102542642D01*
X133042642Y-75000000D02*
X133042642Y-85542642D01*
%TD*%
%TA.AperFunction,Conductor*%
%TO.N,VCC*%
G36*
X170468692Y-70013590D02*
G01*
X170640785Y-70018990D01*
X170644409Y-70019211D01*
X171002624Y-70051763D01*
X171254232Y-70075548D01*
X171257664Y-70075971D01*
X171595778Y-70127433D01*
X171863034Y-70169764D01*
X171866226Y-70170359D01*
X172193245Y-70240559D01*
X172464793Y-70301258D01*
X172467833Y-70302021D01*
X172786157Y-70390761D01*
X173057275Y-70469529D01*
X173060187Y-70470455D01*
X173125025Y-70492829D01*
X173370159Y-70577420D01*
X173638306Y-70673959D01*
X173640938Y-70674977D01*
X173942461Y-70799873D01*
X174206809Y-70914267D01*
X174500425Y-71057230D01*
X174758150Y-71188549D01*
X175041873Y-71348570D01*
X175291483Y-71496191D01*
X175564521Y-71672723D01*
X175804878Y-71836071D01*
X175887166Y-71896620D01*
X176066392Y-72028497D01*
X176296340Y-72206864D01*
X176430809Y-72318930D01*
X176545551Y-72414556D01*
X176763992Y-72607138D01*
X177000131Y-72829426D01*
X177124390Y-72953685D01*
X177206083Y-73035378D01*
X177243972Y-73075628D01*
X177428381Y-73271530D01*
X177620961Y-73489969D01*
X177704481Y-73590186D01*
X177810251Y-73717101D01*
X177828663Y-73739193D01*
X177956573Y-73904094D01*
X178007009Y-73969116D01*
X178152497Y-74166839D01*
X178199447Y-74230646D01*
X178362797Y-74471009D01*
X178539326Y-74744043D01*
X178686938Y-74993641D01*
X178738445Y-75084966D01*
X178846979Y-75277403D01*
X178978273Y-75535084D01*
X179121237Y-75828702D01*
X179235657Y-76093113D01*
X179360510Y-76394536D01*
X179361564Y-76397261D01*
X179458086Y-76665360D01*
X179565057Y-76975353D01*
X179565987Y-76978281D01*
X179644744Y-77249365D01*
X179733476Y-77567665D01*
X179734260Y-77570789D01*
X179794935Y-77842227D01*
X179865137Y-78169265D01*
X179865755Y-78172579D01*
X179908083Y-78439831D01*
X179959525Y-78777827D01*
X179959956Y-78781322D01*
X179983766Y-79033200D01*
X180016288Y-79391098D01*
X180016512Y-79394762D01*
X180021672Y-79558925D01*
X180035030Y-80001008D01*
X179964150Y-99877326D01*
X179963966Y-99877944D01*
X179963966Y-99928932D01*
X179951536Y-100340270D01*
X179945421Y-100534793D01*
X179945197Y-100538456D01*
X179913660Y-100885505D01*
X179888822Y-101148261D01*
X179888391Y-101151756D01*
X179837994Y-101482888D01*
X179794572Y-101757044D01*
X179793954Y-101760358D01*
X179724848Y-102082286D01*
X179663029Y-102358848D01*
X179662245Y-102361972D01*
X179574655Y-102676176D01*
X179494698Y-102951390D01*
X179493768Y-102954317D01*
X179387970Y-103260909D01*
X179290227Y-103532398D01*
X179289173Y-103535123D01*
X179165527Y-103833632D01*
X179049828Y-104100999D01*
X178908161Y-104391954D01*
X178775492Y-104652333D01*
X178616830Y-104933647D01*
X178467758Y-105185714D01*
X178292665Y-105456527D01*
X178127804Y-105699114D01*
X177936861Y-105958613D01*
X177756928Y-106190578D01*
X177550791Y-106437926D01*
X177356540Y-106658260D01*
X177135908Y-106892641D01*
X176928174Y-107100375D01*
X176693793Y-107321007D01*
X176473459Y-107515258D01*
X176226107Y-107721400D01*
X175994162Y-107901314D01*
X175734626Y-108092285D01*
X175492095Y-108257109D01*
X175221233Y-108432235D01*
X174969202Y-108581286D01*
X174687855Y-108739966D01*
X174427516Y-108872615D01*
X174136523Y-109014301D01*
X173869160Y-109129999D01*
X173570678Y-109253634D01*
X173567953Y-109254688D01*
X173296415Y-109352449D01*
X172989851Y-109458237D01*
X172986924Y-109459167D01*
X172711710Y-109539124D01*
X172397509Y-109626713D01*
X172394385Y-109627497D01*
X172117867Y-109689307D01*
X171795882Y-109758425D01*
X171792568Y-109759043D01*
X171518421Y-109802464D01*
X171187307Y-109852858D01*
X171183813Y-109853289D01*
X170920896Y-109878143D01*
X170573992Y-109909667D01*
X170570328Y-109909891D01*
X170374914Y-109916032D01*
X169966439Y-109928375D01*
X169965719Y-109928187D01*
X169964021Y-109928432D01*
X169963966Y-109928432D01*
X89999997Y-109999499D01*
X89586257Y-109986997D01*
X89394204Y-109980961D01*
X89390540Y-109980737D01*
X89042332Y-109949095D01*
X88780734Y-109924366D01*
X88777239Y-109923935D01*
X88445318Y-109873418D01*
X88171969Y-109830124D01*
X88168655Y-109829506D01*
X87846137Y-109760274D01*
X87570155Y-109698584D01*
X87567031Y-109697800D01*
X87252387Y-109610087D01*
X87195834Y-109593657D01*
X86977619Y-109530259D01*
X86974692Y-109529329D01*
X86667763Y-109423415D01*
X86396599Y-109325790D01*
X86393874Y-109324736D01*
X86095077Y-109200971D01*
X85828014Y-109085402D01*
X85536771Y-108943595D01*
X85276684Y-108811075D01*
X84995111Y-108652267D01*
X84743308Y-108503351D01*
X84472231Y-108328086D01*
X84331588Y-108232505D01*
X84229926Y-108163416D01*
X83970180Y-107972292D01*
X83738445Y-107792539D01*
X83490889Y-107586227D01*
X83270767Y-107392163D01*
X83036189Y-107171346D01*
X82828653Y-106963810D01*
X82607836Y-106729232D01*
X82413772Y-106509110D01*
X82406630Y-106500541D01*
X82207452Y-106261545D01*
X82027702Y-106029812D01*
X81836583Y-105770073D01*
X81788359Y-105699114D01*
X81671923Y-105527784D01*
X81496643Y-105256684D01*
X81454672Y-105185714D01*
X81347740Y-105004901D01*
X81188920Y-104723307D01*
X81056404Y-104463228D01*
X80914597Y-104171985D01*
X80879329Y-104090486D01*
X86948428Y-104090486D01*
X86954829Y-104150014D01*
X86954831Y-104150021D01*
X87005073Y-104284728D01*
X87005077Y-104284735D01*
X87091237Y-104399829D01*
X87091240Y-104399832D01*
X87206334Y-104485992D01*
X87206341Y-104485996D01*
X87341048Y-104536238D01*
X87341055Y-104536240D01*
X87400583Y-104542641D01*
X87400600Y-104542642D01*
X88698428Y-104542642D01*
X88698428Y-103264444D01*
X88859597Y-103302642D01*
X88992695Y-103302642D01*
X89124889Y-103287191D01*
X89198428Y-103260424D01*
X89198428Y-104542642D01*
X90496256Y-104542642D01*
X90496272Y-104542641D01*
X90555800Y-104536240D01*
X90555807Y-104536238D01*
X90690514Y-104485996D01*
X90690521Y-104485992D01*
X90805615Y-104399832D01*
X90805618Y-104399829D01*
X90891778Y-104284735D01*
X90891782Y-104284728D01*
X90942024Y-104150021D01*
X90942026Y-104150014D01*
X90948427Y-104090486D01*
X90948428Y-104090469D01*
X90948428Y-102792642D01*
X89666911Y-102792642D01*
X89701977Y-102675513D01*
X89709716Y-102542643D01*
X92022818Y-102542643D01*
X92043232Y-102828075D01*
X92104056Y-103107679D01*
X92104058Y-103107685D01*
X92104059Y-103107688D01*
X92176773Y-103302642D01*
X92204063Y-103375808D01*
X92341198Y-103626951D01*
X92341203Y-103626959D01*
X92512682Y-103856029D01*
X92512698Y-103856047D01*
X92715022Y-104058371D01*
X92715040Y-104058387D01*
X92944110Y-104229866D01*
X92944118Y-104229871D01*
X93195261Y-104367006D01*
X93195260Y-104367006D01*
X93195264Y-104367007D01*
X93195267Y-104367009D01*
X93463382Y-104467011D01*
X93463388Y-104467012D01*
X93463390Y-104467013D01*
X93742994Y-104527837D01*
X93742996Y-104527837D01*
X93743000Y-104527838D01*
X93996648Y-104545979D01*
X94028427Y-104548252D01*
X94028428Y-104548252D01*
X94028429Y-104548252D01*
X94057023Y-104546206D01*
X94313856Y-104527838D01*
X94593474Y-104467011D01*
X94861589Y-104367009D01*
X95112743Y-104229868D01*
X95341823Y-104058381D01*
X95544167Y-103856037D01*
X95715654Y-103626957D01*
X95852795Y-103375803D01*
X95952797Y-103107688D01*
X95986161Y-102954317D01*
X96013623Y-102828075D01*
X96013623Y-102828074D01*
X96013624Y-102828070D01*
X96034038Y-102542643D01*
X97102818Y-102542643D01*
X97123232Y-102828075D01*
X97184056Y-103107679D01*
X97184058Y-103107685D01*
X97184059Y-103107688D01*
X97256773Y-103302642D01*
X97284063Y-103375808D01*
X97421198Y-103626951D01*
X97421203Y-103626959D01*
X97592682Y-103856029D01*
X97592698Y-103856047D01*
X97795022Y-104058371D01*
X97795040Y-104058387D01*
X98024110Y-104229866D01*
X98024118Y-104229871D01*
X98275261Y-104367006D01*
X98275260Y-104367006D01*
X98275264Y-104367007D01*
X98275267Y-104367009D01*
X98543382Y-104467011D01*
X98543388Y-104467012D01*
X98543390Y-104467013D01*
X98822994Y-104527837D01*
X98822996Y-104527837D01*
X98823000Y-104527838D01*
X99076648Y-104545979D01*
X99108427Y-104548252D01*
X99108428Y-104548252D01*
X99108429Y-104548252D01*
X99137023Y-104546206D01*
X99393856Y-104527838D01*
X99673474Y-104467011D01*
X99941589Y-104367009D01*
X100192743Y-104229868D01*
X100378936Y-104090486D01*
X110434214Y-104090486D01*
X110440615Y-104150014D01*
X110440617Y-104150021D01*
X110490859Y-104284728D01*
X110490863Y-104284735D01*
X110577023Y-104399829D01*
X110577026Y-104399832D01*
X110692120Y-104485992D01*
X110692127Y-104485996D01*
X110826834Y-104536238D01*
X110826841Y-104536240D01*
X110886369Y-104542641D01*
X110886386Y-104542642D01*
X112184214Y-104542642D01*
X112184214Y-103264444D01*
X112345383Y-103302642D01*
X112478481Y-103302642D01*
X112610675Y-103287191D01*
X112684214Y-103260424D01*
X112684214Y-104542642D01*
X113982042Y-104542642D01*
X113982058Y-104542641D01*
X114041586Y-104536240D01*
X114041593Y-104536238D01*
X114176300Y-104485996D01*
X114176307Y-104485992D01*
X114291401Y-104399832D01*
X114291404Y-104399829D01*
X114377564Y-104284735D01*
X114377568Y-104284728D01*
X114427810Y-104150021D01*
X114427812Y-104150014D01*
X114434213Y-104090486D01*
X114434214Y-104090469D01*
X114434214Y-102792642D01*
X113152697Y-102792642D01*
X113187763Y-102675513D01*
X113198093Y-102498151D01*
X113167243Y-102323188D01*
X113154067Y-102292642D01*
X114434213Y-102292642D01*
X114434214Y-100994814D01*
X114434213Y-100994797D01*
X114427812Y-100935269D01*
X114427810Y-100935262D01*
X114377568Y-100800555D01*
X114377564Y-100800548D01*
X114291404Y-100685454D01*
X114291401Y-100685451D01*
X114176307Y-100599291D01*
X114176300Y-100599287D01*
X114041593Y-100549045D01*
X114041586Y-100549043D01*
X113982058Y-100542642D01*
X112684214Y-100542642D01*
X112684214Y-101820839D01*
X112523045Y-101782642D01*
X112389947Y-101782642D01*
X112257753Y-101798093D01*
X112184214Y-101824859D01*
X112184214Y-100542642D01*
X110886369Y-100542642D01*
X110826841Y-100549043D01*
X110826834Y-100549045D01*
X110692127Y-100599287D01*
X110692120Y-100599291D01*
X110577026Y-100685451D01*
X110577023Y-100685454D01*
X110490863Y-100800548D01*
X110490859Y-100800555D01*
X110440617Y-100935262D01*
X110440615Y-100935269D01*
X110434214Y-100994797D01*
X110434214Y-102292642D01*
X111715731Y-102292642D01*
X111680665Y-102409771D01*
X111670335Y-102587133D01*
X111701185Y-102762096D01*
X111714361Y-102792642D01*
X110434214Y-102792642D01*
X110434214Y-104090486D01*
X100378936Y-104090486D01*
X100421823Y-104058381D01*
X100624167Y-103856037D01*
X100795654Y-103626957D01*
X100932795Y-103375803D01*
X101032797Y-103107688D01*
X101066161Y-102954317D01*
X101093623Y-102828075D01*
X101093623Y-102828074D01*
X101093624Y-102828070D01*
X101114038Y-102542642D01*
X101093624Y-102257214D01*
X101089786Y-102239572D01*
X101032799Y-101977604D01*
X101032798Y-101977602D01*
X101032797Y-101977596D01*
X100932795Y-101709481D01*
X100848202Y-101554562D01*
X100795657Y-101458332D01*
X100795652Y-101458324D01*
X100624173Y-101229254D01*
X100624157Y-101229236D01*
X100421833Y-101026912D01*
X100421815Y-101026896D01*
X100192745Y-100855417D01*
X100192737Y-100855412D01*
X99941594Y-100718277D01*
X99941595Y-100718277D01*
X99834342Y-100678274D01*
X99673474Y-100618273D01*
X99673471Y-100618272D01*
X99673465Y-100618270D01*
X99393861Y-100557446D01*
X99108429Y-100537032D01*
X99108427Y-100537032D01*
X98822994Y-100557446D01*
X98543390Y-100618270D01*
X98275261Y-100718277D01*
X98024118Y-100855412D01*
X98024110Y-100855417D01*
X97795040Y-101026896D01*
X97795022Y-101026912D01*
X97592698Y-101229236D01*
X97592682Y-101229254D01*
X97421203Y-101458324D01*
X97421198Y-101458332D01*
X97284063Y-101709475D01*
X97184056Y-101977604D01*
X97123232Y-102257208D01*
X97102818Y-102542640D01*
X97102818Y-102542643D01*
X96034038Y-102542643D01*
X96034038Y-102542642D01*
X96013624Y-102257214D01*
X96009786Y-102239572D01*
X95952799Y-101977604D01*
X95952798Y-101977602D01*
X95952797Y-101977596D01*
X95852795Y-101709481D01*
X95768202Y-101554562D01*
X95715657Y-101458332D01*
X95715652Y-101458324D01*
X95544173Y-101229254D01*
X95544157Y-101229236D01*
X95341833Y-101026912D01*
X95341815Y-101026896D01*
X95112745Y-100855417D01*
X95112737Y-100855412D01*
X95093499Y-100844907D01*
X95044095Y-100795501D01*
X95028928Y-100736076D01*
X95028928Y-100532687D01*
X95028928Y-100272635D01*
X95048611Y-100205600D01*
X95065241Y-100184963D01*
X96420744Y-98829460D01*
X96482067Y-98795976D01*
X96508425Y-98793142D01*
X113529926Y-98793142D01*
X113619000Y-98795399D01*
X113619000Y-98795398D01*
X113619005Y-98795399D01*
X113679395Y-98784574D01*
X113684054Y-98783922D01*
X113726249Y-98779630D01*
X113745080Y-98777716D01*
X113777869Y-98767428D01*
X113785482Y-98765560D01*
X113819295Y-98759500D01*
X113876263Y-98736743D01*
X113880695Y-98735166D01*
X113939230Y-98716801D01*
X113969269Y-98700126D01*
X113976350Y-98696764D01*
X114008259Y-98684019D01*
X114059496Y-98650250D01*
X114063493Y-98647829D01*
X114117144Y-98618051D01*
X114143210Y-98595672D01*
X114149485Y-98590942D01*
X114149787Y-98590743D01*
X114178161Y-98572044D01*
X114221559Y-98528644D01*
X114224978Y-98525476D01*
X114271537Y-98485508D01*
X114292573Y-98458330D01*
X114297743Y-98452460D01*
X126241129Y-86509075D01*
X126305695Y-86447701D01*
X126340754Y-86397328D01*
X126343567Y-86393599D01*
X126382340Y-86346049D01*
X126398249Y-86315590D01*
X126402309Y-86308890D01*
X126421937Y-86280691D01*
X126446134Y-86224302D01*
X126448140Y-86220077D01*
X126476551Y-86165691D01*
X126486002Y-86132657D01*
X126488633Y-86125270D01*
X126502182Y-86093700D01*
X126514535Y-86033582D01*
X126515648Y-86029054D01*
X126532529Y-85970060D01*
X126535137Y-85935797D01*
X126536229Y-85928018D01*
X126543142Y-85894383D01*
X126543142Y-85833017D01*
X126543318Y-85828363D01*
X126547979Y-85767165D01*
X126545167Y-85745086D01*
X126543639Y-85733083D01*
X126543142Y-85725244D01*
X126543142Y-85076859D01*
X126543142Y-76428953D01*
X126562826Y-76361918D01*
X126602049Y-76323416D01*
X126611298Y-76317712D01*
X126735354Y-76193656D01*
X126812605Y-76068411D01*
X126864549Y-76021689D01*
X126933511Y-76010466D01*
X126997594Y-76038309D01*
X127036451Y-76096377D01*
X127042141Y-76133510D01*
X127042141Y-89076859D01*
X127022456Y-89143898D01*
X127005822Y-89164540D01*
X116815746Y-99354616D01*
X116751160Y-99416012D01*
X116716113Y-99466364D01*
X116713276Y-99470126D01*
X116674516Y-99517662D01*
X116674513Y-99517667D01*
X116658606Y-99548117D01*
X116654538Y-99554831D01*
X116634916Y-99583024D01*
X116610723Y-99639400D01*
X116608702Y-99643654D01*
X116580305Y-99698021D01*
X116580304Y-99698022D01*
X116570854Y-99731045D01*
X116568221Y-99738441D01*
X116554673Y-99770013D01*
X116542327Y-99830089D01*
X116541204Y-99834665D01*
X116524327Y-99893647D01*
X116524327Y-99893649D01*
X116521717Y-99927911D01*
X116520628Y-99935678D01*
X116515194Y-99962122D01*
X116513714Y-99969328D01*
X116513714Y-100030667D01*
X116513535Y-100035376D01*
X116508876Y-100096543D01*
X116513216Y-100130619D01*
X116513713Y-100138459D01*
X116513713Y-100736077D01*
X116494028Y-100803116D01*
X116449142Y-100844908D01*
X116429897Y-100855416D01*
X116200826Y-101026896D01*
X116200808Y-101026912D01*
X115998484Y-101229236D01*
X115998468Y-101229254D01*
X115826989Y-101458324D01*
X115826984Y-101458332D01*
X115689849Y-101709475D01*
X115589842Y-101977604D01*
X115529018Y-102257208D01*
X115508604Y-102542640D01*
X115508604Y-102542643D01*
X115529018Y-102828075D01*
X115589842Y-103107679D01*
X115589844Y-103107685D01*
X115589845Y-103107688D01*
X115662559Y-103302642D01*
X115689849Y-103375808D01*
X115826984Y-103626951D01*
X115826989Y-103626959D01*
X115998468Y-103856029D01*
X115998484Y-103856047D01*
X116200808Y-104058371D01*
X116200826Y-104058387D01*
X116429896Y-104229866D01*
X116429904Y-104229871D01*
X116681047Y-104367006D01*
X116681046Y-104367006D01*
X116681050Y-104367007D01*
X116681053Y-104367009D01*
X116949168Y-104467011D01*
X116949174Y-104467012D01*
X116949176Y-104467013D01*
X117228780Y-104527837D01*
X117228782Y-104527837D01*
X117228786Y-104527838D01*
X117482434Y-104545979D01*
X117514213Y-104548252D01*
X117514214Y-104548252D01*
X117514215Y-104548252D01*
X117542809Y-104546206D01*
X117799642Y-104527838D01*
X118079260Y-104467011D01*
X118347375Y-104367009D01*
X118598529Y-104229868D01*
X118827609Y-104058381D01*
X119029953Y-103856037D01*
X119201440Y-103626957D01*
X119338581Y-103375803D01*
X119438583Y-103107688D01*
X119471947Y-102954317D01*
X119499409Y-102828075D01*
X119499409Y-102828074D01*
X119499410Y-102828070D01*
X119519824Y-102542643D01*
X120588604Y-102542643D01*
X120609018Y-102828075D01*
X120669842Y-103107679D01*
X120669844Y-103107685D01*
X120669845Y-103107688D01*
X120742559Y-103302642D01*
X120769849Y-103375808D01*
X120906984Y-103626951D01*
X120906989Y-103626959D01*
X121078468Y-103856029D01*
X121078484Y-103856047D01*
X121280808Y-104058371D01*
X121280826Y-104058387D01*
X121509896Y-104229866D01*
X121509904Y-104229871D01*
X121761047Y-104367006D01*
X121761046Y-104367006D01*
X121761050Y-104367007D01*
X121761053Y-104367009D01*
X122029168Y-104467011D01*
X122029174Y-104467012D01*
X122029176Y-104467013D01*
X122308780Y-104527837D01*
X122308782Y-104527837D01*
X122308786Y-104527838D01*
X122562434Y-104545979D01*
X122594213Y-104548252D01*
X122594214Y-104548252D01*
X122594215Y-104548252D01*
X122622809Y-104546206D01*
X122879642Y-104527838D01*
X123159260Y-104467011D01*
X123427375Y-104367009D01*
X123678529Y-104229868D01*
X123864722Y-104090486D01*
X133920000Y-104090486D01*
X133926401Y-104150014D01*
X133926403Y-104150021D01*
X133976645Y-104284728D01*
X133976649Y-104284735D01*
X134062809Y-104399829D01*
X134062812Y-104399832D01*
X134177906Y-104485992D01*
X134177913Y-104485996D01*
X134312620Y-104536238D01*
X134312627Y-104536240D01*
X134372155Y-104542641D01*
X134372172Y-104542642D01*
X135670000Y-104542642D01*
X135670000Y-103264444D01*
X135831169Y-103302642D01*
X135964267Y-103302642D01*
X136096461Y-103287191D01*
X136170000Y-103260424D01*
X136170000Y-104542642D01*
X137467828Y-104542642D01*
X137467844Y-104542641D01*
X137527372Y-104536240D01*
X137527379Y-104536238D01*
X137662086Y-104485996D01*
X137662093Y-104485992D01*
X137777187Y-104399832D01*
X137777190Y-104399829D01*
X137863350Y-104284735D01*
X137863354Y-104284728D01*
X137913596Y-104150021D01*
X137913598Y-104150014D01*
X137919999Y-104090486D01*
X137920000Y-104090469D01*
X137920000Y-102792642D01*
X136638483Y-102792642D01*
X136673549Y-102675513D01*
X136683879Y-102498151D01*
X136653029Y-102323188D01*
X136639853Y-102292642D01*
X137920000Y-102292642D01*
X137920000Y-100994814D01*
X137919999Y-100994797D01*
X137913598Y-100935269D01*
X137913596Y-100935262D01*
X137863354Y-100800555D01*
X137863350Y-100800548D01*
X137777190Y-100685454D01*
X137777187Y-100685451D01*
X137662093Y-100599291D01*
X137662086Y-100599287D01*
X137527379Y-100549045D01*
X137527372Y-100549043D01*
X137467844Y-100542642D01*
X136170000Y-100542642D01*
X136170000Y-101820839D01*
X136008831Y-101782642D01*
X135875733Y-101782642D01*
X135743539Y-101798093D01*
X135670000Y-101824859D01*
X135670000Y-100542642D01*
X134372155Y-100542642D01*
X134312627Y-100549043D01*
X134312620Y-100549045D01*
X134177913Y-100599287D01*
X134177906Y-100599291D01*
X134062812Y-100685451D01*
X134062809Y-100685454D01*
X133976649Y-100800548D01*
X133976645Y-100800555D01*
X133926403Y-100935262D01*
X133926401Y-100935269D01*
X133920000Y-100994797D01*
X133920000Y-102292642D01*
X135201517Y-102292642D01*
X135166451Y-102409771D01*
X135156121Y-102587133D01*
X135186971Y-102762096D01*
X135200147Y-102792642D01*
X133920000Y-102792642D01*
X133920000Y-104090486D01*
X123864722Y-104090486D01*
X123907609Y-104058381D01*
X124109953Y-103856037D01*
X124281440Y-103626957D01*
X124418581Y-103375803D01*
X124518583Y-103107688D01*
X124551947Y-102954317D01*
X124579409Y-102828075D01*
X124579409Y-102828074D01*
X124579410Y-102828070D01*
X124599824Y-102542642D01*
X124579410Y-102257214D01*
X124575572Y-102239572D01*
X124518585Y-101977604D01*
X124518584Y-101977602D01*
X124518583Y-101977596D01*
X124418581Y-101709481D01*
X124333988Y-101554562D01*
X124281443Y-101458332D01*
X124281438Y-101458324D01*
X124109959Y-101229254D01*
X124109943Y-101229236D01*
X123907619Y-101026912D01*
X123907601Y-101026896D01*
X123678531Y-100855417D01*
X123678523Y-100855412D01*
X123427380Y-100718277D01*
X123427381Y-100718277D01*
X123320129Y-100678274D01*
X123159260Y-100618273D01*
X123159257Y-100618272D01*
X123159251Y-100618270D01*
X122879647Y-100557446D01*
X122594215Y-100537032D01*
X122594213Y-100537032D01*
X122308780Y-100557446D01*
X122029176Y-100618270D01*
X121761047Y-100718277D01*
X121509904Y-100855412D01*
X121509896Y-100855417D01*
X121280826Y-101026896D01*
X121280808Y-101026912D01*
X121078484Y-101229236D01*
X121078468Y-101229254D01*
X120906989Y-101458324D01*
X120906984Y-101458332D01*
X120769849Y-101709475D01*
X120669842Y-101977604D01*
X120609018Y-102257208D01*
X120588604Y-102542640D01*
X120588604Y-102542643D01*
X119519824Y-102542643D01*
X119519824Y-102542642D01*
X119499410Y-102257214D01*
X119495572Y-102239572D01*
X119438585Y-101977604D01*
X119438584Y-101977602D01*
X119438583Y-101977596D01*
X119338581Y-101709481D01*
X119253988Y-101554562D01*
X119201443Y-101458332D01*
X119201438Y-101458324D01*
X119029959Y-101229254D01*
X119029943Y-101229236D01*
X118827619Y-101026912D01*
X118827601Y-101026896D01*
X118598531Y-100855417D01*
X118598523Y-100855412D01*
X118579285Y-100844907D01*
X118529881Y-100795501D01*
X118514714Y-100736076D01*
X118514714Y-100536852D01*
X118534399Y-100469813D01*
X118551028Y-100449176D01*
X128741129Y-90259075D01*
X128805695Y-90197701D01*
X128840754Y-90147328D01*
X128843567Y-90143599D01*
X128882340Y-90096049D01*
X128898249Y-90065590D01*
X128902309Y-90058890D01*
X128921937Y-90030691D01*
X128946134Y-89974302D01*
X128948140Y-89970077D01*
X128976551Y-89915691D01*
X128986002Y-89882657D01*
X128988633Y-89875270D01*
X129002182Y-89843700D01*
X129014535Y-89783582D01*
X129015648Y-89779054D01*
X129032529Y-89720060D01*
X129035137Y-89685797D01*
X129036229Y-89678018D01*
X129043142Y-89644383D01*
X129043142Y-89583017D01*
X129043318Y-89578363D01*
X129047979Y-89517165D01*
X129043637Y-89483081D01*
X129043141Y-89475247D01*
X129043141Y-85076859D01*
X129043141Y-76085754D01*
X129062826Y-76018719D01*
X129079472Y-75998065D01*
X129081137Y-75996401D01*
X129191071Y-75839398D01*
X129245642Y-75795778D01*
X129315140Y-75788584D01*
X129377495Y-75820106D01*
X129394216Y-75839403D01*
X129504146Y-75996400D01*
X129505815Y-75998069D01*
X129506317Y-75998989D01*
X129507628Y-76000551D01*
X129507314Y-76000814D01*
X129539306Y-76059389D01*
X129542142Y-76085758D01*
X129542142Y-89529925D01*
X129539885Y-89619004D01*
X129539885Y-89619012D01*
X129544433Y-89644382D01*
X129550461Y-89678018D01*
X129550706Y-89679381D01*
X129551360Y-89684046D01*
X129557567Y-89745072D01*
X129557569Y-89745086D01*
X129567850Y-89777855D01*
X129569721Y-89785479D01*
X129575784Y-89819294D01*
X129575784Y-89819297D01*
X129598536Y-89876254D01*
X129600116Y-89880693D01*
X129618483Y-89939230D01*
X129618486Y-89939237D01*
X129635151Y-89969261D01*
X129638521Y-89976356D01*
X129651264Y-90008256D01*
X129651269Y-90008266D01*
X129685019Y-90059475D01*
X129687460Y-90063505D01*
X129717230Y-90117140D01*
X129717231Y-90117141D01*
X129717233Y-90117144D01*
X129739610Y-90143209D01*
X129744335Y-90149477D01*
X129756905Y-90168548D01*
X129763240Y-90178161D01*
X129806620Y-90221541D01*
X129809811Y-90224985D01*
X129849773Y-90271534D01*
X129849776Y-90271537D01*
X129876936Y-90292560D01*
X129882832Y-90297753D01*
X139963181Y-100378102D01*
X139996666Y-100439425D01*
X139999500Y-100465783D01*
X139999500Y-100736076D01*
X139979815Y-100803115D01*
X139934929Y-100844907D01*
X139915690Y-100855412D01*
X139915682Y-100855417D01*
X139686612Y-101026896D01*
X139686594Y-101026912D01*
X139484270Y-101229236D01*
X139484254Y-101229254D01*
X139312775Y-101458324D01*
X139312770Y-101458332D01*
X139175635Y-101709475D01*
X139075628Y-101977604D01*
X139014804Y-102257208D01*
X138994390Y-102542640D01*
X138994390Y-102542643D01*
X139014804Y-102828075D01*
X139075628Y-103107679D01*
X139075630Y-103107685D01*
X139075631Y-103107688D01*
X139148345Y-103302642D01*
X139175635Y-103375808D01*
X139312770Y-103626951D01*
X139312775Y-103626959D01*
X139484254Y-103856029D01*
X139484270Y-103856047D01*
X139686594Y-104058371D01*
X139686612Y-104058387D01*
X139915682Y-104229866D01*
X139915690Y-104229871D01*
X140166833Y-104367006D01*
X140166832Y-104367006D01*
X140166836Y-104367007D01*
X140166839Y-104367009D01*
X140434954Y-104467011D01*
X140434960Y-104467012D01*
X140434962Y-104467013D01*
X140714566Y-104527837D01*
X140714568Y-104527837D01*
X140714572Y-104527838D01*
X140968220Y-104545979D01*
X140999999Y-104548252D01*
X141000000Y-104548252D01*
X141000001Y-104548252D01*
X141028595Y-104546206D01*
X141285428Y-104527838D01*
X141565046Y-104467011D01*
X141833161Y-104367009D01*
X142084315Y-104229868D01*
X142313395Y-104058381D01*
X142515739Y-103856037D01*
X142687226Y-103626957D01*
X142824367Y-103375803D01*
X142924369Y-103107688D01*
X142957733Y-102954317D01*
X142985195Y-102828075D01*
X142985195Y-102828074D01*
X142985196Y-102828070D01*
X143005610Y-102542643D01*
X144074390Y-102542643D01*
X144094804Y-102828075D01*
X144155628Y-103107679D01*
X144155630Y-103107685D01*
X144155631Y-103107688D01*
X144228345Y-103302642D01*
X144255635Y-103375808D01*
X144392770Y-103626951D01*
X144392775Y-103626959D01*
X144564254Y-103856029D01*
X144564270Y-103856047D01*
X144766594Y-104058371D01*
X144766612Y-104058387D01*
X144995682Y-104229866D01*
X144995690Y-104229871D01*
X145246833Y-104367006D01*
X145246832Y-104367006D01*
X145246836Y-104367007D01*
X145246839Y-104367009D01*
X145514954Y-104467011D01*
X145514960Y-104467012D01*
X145514962Y-104467013D01*
X145794566Y-104527837D01*
X145794568Y-104527837D01*
X145794572Y-104527838D01*
X146048220Y-104545979D01*
X146079999Y-104548252D01*
X146080000Y-104548252D01*
X146080001Y-104548252D01*
X146108595Y-104546206D01*
X146365428Y-104527838D01*
X146645046Y-104467011D01*
X146913161Y-104367009D01*
X147164315Y-104229868D01*
X147350508Y-104090486D01*
X157405786Y-104090486D01*
X157412187Y-104150014D01*
X157412189Y-104150021D01*
X157462431Y-104284728D01*
X157462435Y-104284735D01*
X157548595Y-104399829D01*
X157548598Y-104399832D01*
X157663692Y-104485992D01*
X157663699Y-104485996D01*
X157798406Y-104536238D01*
X157798413Y-104536240D01*
X157857941Y-104542641D01*
X157857958Y-104542642D01*
X159155786Y-104542642D01*
X159155786Y-103264444D01*
X159316955Y-103302642D01*
X159450053Y-103302642D01*
X159582247Y-103287191D01*
X159655786Y-103260424D01*
X159655786Y-104542642D01*
X160953614Y-104542642D01*
X160953630Y-104542641D01*
X161013158Y-104536240D01*
X161013165Y-104536238D01*
X161147872Y-104485996D01*
X161147879Y-104485992D01*
X161262973Y-104399832D01*
X161262976Y-104399829D01*
X161349136Y-104284735D01*
X161349140Y-104284728D01*
X161399382Y-104150021D01*
X161399384Y-104150014D01*
X161405785Y-104090486D01*
X161405786Y-104090469D01*
X161405786Y-102792642D01*
X160124269Y-102792642D01*
X160159335Y-102675513D01*
X160169665Y-102498151D01*
X160138815Y-102323188D01*
X160125639Y-102292642D01*
X161405786Y-102292642D01*
X161405786Y-100994814D01*
X161405785Y-100994797D01*
X161399384Y-100935269D01*
X161399382Y-100935262D01*
X161349140Y-100800555D01*
X161349136Y-100800548D01*
X161262976Y-100685454D01*
X161262973Y-100685451D01*
X161147879Y-100599291D01*
X161147872Y-100599287D01*
X161013165Y-100549045D01*
X161013158Y-100549043D01*
X160953630Y-100542642D01*
X159655786Y-100542642D01*
X159655786Y-101820839D01*
X159494617Y-101782642D01*
X159361519Y-101782642D01*
X159229325Y-101798093D01*
X159155786Y-101824859D01*
X159155786Y-100542642D01*
X157857941Y-100542642D01*
X157798413Y-100549043D01*
X157798406Y-100549045D01*
X157663699Y-100599287D01*
X157663692Y-100599291D01*
X157548598Y-100685451D01*
X157548595Y-100685454D01*
X157462435Y-100800548D01*
X157462431Y-100800555D01*
X157412189Y-100935262D01*
X157412187Y-100935269D01*
X157405786Y-100994797D01*
X157405786Y-102292642D01*
X158687303Y-102292642D01*
X158652237Y-102409771D01*
X158641907Y-102587133D01*
X158672757Y-102762096D01*
X158685933Y-102792642D01*
X157405786Y-102792642D01*
X157405786Y-104090486D01*
X147350508Y-104090486D01*
X147393395Y-104058381D01*
X147595739Y-103856037D01*
X147767226Y-103626957D01*
X147904367Y-103375803D01*
X148004369Y-103107688D01*
X148037733Y-102954317D01*
X148065195Y-102828075D01*
X148065195Y-102828074D01*
X148065196Y-102828070D01*
X148085610Y-102542642D01*
X148065196Y-102257214D01*
X148061358Y-102239572D01*
X148004371Y-101977604D01*
X148004370Y-101977602D01*
X148004369Y-101977596D01*
X147904367Y-101709481D01*
X147819774Y-101554562D01*
X147767229Y-101458332D01*
X147767224Y-101458324D01*
X147595745Y-101229254D01*
X147595729Y-101229236D01*
X147393405Y-101026912D01*
X147393387Y-101026896D01*
X147164317Y-100855417D01*
X147164309Y-100855412D01*
X146913166Y-100718277D01*
X146913167Y-100718277D01*
X146805915Y-100678274D01*
X146645046Y-100618273D01*
X146645043Y-100618272D01*
X146645037Y-100618270D01*
X146365433Y-100557446D01*
X146080001Y-100537032D01*
X146079999Y-100537032D01*
X145794566Y-100557446D01*
X145514962Y-100618270D01*
X145246833Y-100718277D01*
X144995690Y-100855412D01*
X144995682Y-100855417D01*
X144766612Y-101026896D01*
X144766594Y-101026912D01*
X144564270Y-101229236D01*
X144564254Y-101229254D01*
X144392775Y-101458324D01*
X144392770Y-101458332D01*
X144255635Y-101709475D01*
X144155628Y-101977604D01*
X144094804Y-102257208D01*
X144074390Y-102542640D01*
X144074390Y-102542643D01*
X143005610Y-102542643D01*
X143005610Y-102542642D01*
X142985196Y-102257214D01*
X142981358Y-102239572D01*
X142924371Y-101977604D01*
X142924370Y-101977602D01*
X142924369Y-101977596D01*
X142824367Y-101709481D01*
X142739774Y-101554562D01*
X142687229Y-101458332D01*
X142687224Y-101458324D01*
X142515745Y-101229254D01*
X142515729Y-101229236D01*
X142313405Y-101026912D01*
X142313387Y-101026896D01*
X142084317Y-100855417D01*
X142084309Y-100855412D01*
X142065071Y-100844907D01*
X142015667Y-100795501D01*
X142000500Y-100736076D01*
X142000500Y-100012715D01*
X142002757Y-99923642D01*
X142002756Y-99923641D01*
X142002757Y-99923637D01*
X141991930Y-99863234D01*
X141991280Y-99858599D01*
X141985074Y-99797562D01*
X141974790Y-99764786D01*
X141972920Y-99757168D01*
X141966859Y-99723348D01*
X141966858Y-99723346D01*
X141966858Y-99723344D01*
X141944098Y-99666366D01*
X141942517Y-99661925D01*
X141932324Y-99629438D01*
X141924159Y-99603412D01*
X141907482Y-99573366D01*
X141904122Y-99566288D01*
X141903957Y-99565875D01*
X141891378Y-99534383D01*
X141891375Y-99534378D01*
X141891374Y-99534376D01*
X141872539Y-99505799D01*
X141857605Y-99483139D01*
X141855183Y-99479142D01*
X141825409Y-99425498D01*
X141803034Y-99399434D01*
X141798306Y-99393163D01*
X141779404Y-99364484D01*
X141779399Y-99364478D01*
X141757715Y-99342795D01*
X141736019Y-99321099D01*
X141732828Y-99317655D01*
X141720620Y-99303434D01*
X141692866Y-99271105D01*
X141674499Y-99256888D01*
X141665694Y-99250072D01*
X141659807Y-99244887D01*
X131579460Y-89164540D01*
X131545975Y-89103217D01*
X131543141Y-89076859D01*
X131543141Y-85076859D01*
X131543141Y-76085754D01*
X131562826Y-76018719D01*
X131579471Y-75998066D01*
X131581137Y-75996401D01*
X131691068Y-75839402D01*
X131745642Y-75795779D01*
X131815141Y-75788585D01*
X131877495Y-75820107D01*
X131894216Y-75839403D01*
X132004146Y-75996400D01*
X132004148Y-75996402D01*
X132005815Y-75998069D01*
X132006317Y-75998989D01*
X132007628Y-76000551D01*
X132007314Y-76000814D01*
X132039306Y-76059389D01*
X132042142Y-76085758D01*
X132042142Y-85529925D01*
X132039885Y-85619004D01*
X132039885Y-85619012D01*
X132050706Y-85679381D01*
X132051360Y-85684046D01*
X132057567Y-85745072D01*
X132057569Y-85745086D01*
X132067850Y-85777855D01*
X132069721Y-85785479D01*
X132075784Y-85819294D01*
X132075784Y-85819297D01*
X132098536Y-85876254D01*
X132100116Y-85880693D01*
X132118483Y-85939230D01*
X132118486Y-85939237D01*
X132135151Y-85969261D01*
X132138521Y-85976356D01*
X132151264Y-86008256D01*
X132151269Y-86008266D01*
X132185019Y-86059475D01*
X132187460Y-86063505D01*
X132217230Y-86117140D01*
X132217231Y-86117141D01*
X132217233Y-86117144D01*
X132239610Y-86143209D01*
X132244335Y-86149477D01*
X132256905Y-86168548D01*
X132263240Y-86178161D01*
X132306620Y-86221541D01*
X132309811Y-86224985D01*
X132349773Y-86271534D01*
X132349772Y-86271534D01*
X132376941Y-86292565D01*
X132382828Y-86297749D01*
X144576189Y-98491109D01*
X144637583Y-98555695D01*
X144637586Y-98555697D01*
X144637589Y-98555700D01*
X144671695Y-98579437D01*
X144687945Y-98590748D01*
X144691686Y-98593568D01*
X144739235Y-98632340D01*
X144769687Y-98648246D01*
X144776398Y-98652313D01*
X144804593Y-98671937D01*
X144860974Y-98696132D01*
X144865209Y-98698143D01*
X144919593Y-98726551D01*
X144952615Y-98735998D01*
X144960007Y-98738631D01*
X144991582Y-98752181D01*
X144991583Y-98752182D01*
X145004696Y-98754876D01*
X145051697Y-98764534D01*
X145056237Y-98765648D01*
X145115224Y-98782528D01*
X145149483Y-98785136D01*
X145157251Y-98786227D01*
X145190897Y-98793142D01*
X145190901Y-98793142D01*
X145252243Y-98793142D01*
X145256950Y-98793320D01*
X145284239Y-98795399D01*
X145318117Y-98797979D01*
X145318117Y-98797978D01*
X145318118Y-98797979D01*
X145352201Y-98793638D01*
X145360031Y-98793142D01*
X161826859Y-98793142D01*
X161893898Y-98812827D01*
X161914540Y-98829461D01*
X163448967Y-100363887D01*
X163482452Y-100425210D01*
X163485286Y-100451568D01*
X163485286Y-100736076D01*
X163465601Y-100803115D01*
X163420715Y-100844907D01*
X163401476Y-100855412D01*
X163401468Y-100855417D01*
X163172398Y-101026896D01*
X163172380Y-101026912D01*
X162970056Y-101229236D01*
X162970040Y-101229254D01*
X162798561Y-101458324D01*
X162798556Y-101458332D01*
X162661421Y-101709475D01*
X162561414Y-101977604D01*
X162500590Y-102257208D01*
X162480176Y-102542640D01*
X162480176Y-102542643D01*
X162500590Y-102828075D01*
X162561414Y-103107679D01*
X162561416Y-103107685D01*
X162561417Y-103107688D01*
X162634131Y-103302642D01*
X162661421Y-103375808D01*
X162798556Y-103626951D01*
X162798561Y-103626959D01*
X162970040Y-103856029D01*
X162970056Y-103856047D01*
X163172380Y-104058371D01*
X163172398Y-104058387D01*
X163401468Y-104229866D01*
X163401476Y-104229871D01*
X163652619Y-104367006D01*
X163652618Y-104367006D01*
X163652622Y-104367007D01*
X163652625Y-104367009D01*
X163920740Y-104467011D01*
X163920746Y-104467012D01*
X163920748Y-104467013D01*
X164200352Y-104527837D01*
X164200354Y-104527837D01*
X164200358Y-104527838D01*
X164454006Y-104545979D01*
X164485785Y-104548252D01*
X164485786Y-104548252D01*
X164485787Y-104548252D01*
X164514381Y-104546206D01*
X164771214Y-104527838D01*
X165050832Y-104467011D01*
X165318947Y-104367009D01*
X165570101Y-104229868D01*
X165799181Y-104058381D01*
X166001525Y-103856037D01*
X166173012Y-103626957D01*
X166310153Y-103375803D01*
X166410155Y-103107688D01*
X166443519Y-102954317D01*
X166470981Y-102828075D01*
X166470981Y-102828074D01*
X166470982Y-102828070D01*
X166491396Y-102542643D01*
X167560176Y-102542643D01*
X167580590Y-102828075D01*
X167641414Y-103107679D01*
X167641416Y-103107685D01*
X167641417Y-103107688D01*
X167714131Y-103302642D01*
X167741421Y-103375808D01*
X167878556Y-103626951D01*
X167878561Y-103626959D01*
X168050040Y-103856029D01*
X168050056Y-103856047D01*
X168252380Y-104058371D01*
X168252398Y-104058387D01*
X168481468Y-104229866D01*
X168481476Y-104229871D01*
X168732619Y-104367006D01*
X168732618Y-104367006D01*
X168732622Y-104367007D01*
X168732625Y-104367009D01*
X169000740Y-104467011D01*
X169000746Y-104467012D01*
X169000748Y-104467013D01*
X169280352Y-104527837D01*
X169280354Y-104527837D01*
X169280358Y-104527838D01*
X169534006Y-104545979D01*
X169565785Y-104548252D01*
X169565786Y-104548252D01*
X169565787Y-104548252D01*
X169594381Y-104546206D01*
X169851214Y-104527838D01*
X170130832Y-104467011D01*
X170398947Y-104367009D01*
X170650101Y-104229868D01*
X170879181Y-104058381D01*
X171081525Y-103856037D01*
X171253012Y-103626957D01*
X171390153Y-103375803D01*
X171490155Y-103107688D01*
X171523519Y-102954317D01*
X171550981Y-102828075D01*
X171550981Y-102828074D01*
X171550982Y-102828070D01*
X171571396Y-102542642D01*
X171550982Y-102257214D01*
X171547144Y-102239572D01*
X171490157Y-101977604D01*
X171490156Y-101977602D01*
X171490155Y-101977596D01*
X171390153Y-101709481D01*
X171305560Y-101554562D01*
X171253015Y-101458332D01*
X171253010Y-101458324D01*
X171081531Y-101229254D01*
X171081515Y-101229236D01*
X170879191Y-101026912D01*
X170879173Y-101026896D01*
X170650103Y-100855417D01*
X170650095Y-100855412D01*
X170398952Y-100718277D01*
X170398953Y-100718277D01*
X170291700Y-100678274D01*
X170130832Y-100618273D01*
X170130829Y-100618272D01*
X170130823Y-100618270D01*
X169851219Y-100557446D01*
X169565787Y-100537032D01*
X169565785Y-100537032D01*
X169280352Y-100557446D01*
X169000748Y-100618270D01*
X168732619Y-100718277D01*
X168481476Y-100855412D01*
X168481468Y-100855417D01*
X168252398Y-101026896D01*
X168252380Y-101026912D01*
X168050056Y-101229236D01*
X168050040Y-101229254D01*
X167878561Y-101458324D01*
X167878556Y-101458332D01*
X167741421Y-101709475D01*
X167641414Y-101977604D01*
X167580590Y-102257208D01*
X167560176Y-102542640D01*
X167560176Y-102542643D01*
X166491396Y-102542643D01*
X166491396Y-102542642D01*
X166470982Y-102257214D01*
X166467144Y-102239572D01*
X166410157Y-101977604D01*
X166410156Y-101977602D01*
X166410155Y-101977596D01*
X166310153Y-101709481D01*
X166225560Y-101554562D01*
X166173015Y-101458332D01*
X166173010Y-101458324D01*
X166001531Y-101229254D01*
X166001515Y-101229236D01*
X165799191Y-101026912D01*
X165799173Y-101026896D01*
X165570103Y-100855417D01*
X165570095Y-100855412D01*
X165550857Y-100844907D01*
X165501453Y-100795501D01*
X165486286Y-100736076D01*
X165486286Y-99998501D01*
X165488543Y-99909427D01*
X165488542Y-99909426D01*
X165488543Y-99909423D01*
X165477719Y-99849035D01*
X165477066Y-99844373D01*
X165470860Y-99783349D01*
X165470860Y-99783348D01*
X165460570Y-99750554D01*
X165458703Y-99742941D01*
X165452644Y-99709133D01*
X165452643Y-99709131D01*
X165451038Y-99705114D01*
X165429886Y-99652160D01*
X165428307Y-99647724D01*
X165427030Y-99643654D01*
X165409945Y-99589198D01*
X165409944Y-99589196D01*
X165409943Y-99589193D01*
X165399257Y-99569942D01*
X165393271Y-99559157D01*
X165389903Y-99552064D01*
X165382842Y-99534387D01*
X165377163Y-99520169D01*
X165343406Y-99468949D01*
X165340966Y-99464920D01*
X165323696Y-99433807D01*
X165311195Y-99411284D01*
X165311193Y-99411281D01*
X165288819Y-99385220D01*
X165284088Y-99378945D01*
X165281611Y-99375186D01*
X165265188Y-99350267D01*
X165221798Y-99306877D01*
X165218608Y-99303434D01*
X165178653Y-99256892D01*
X165178649Y-99256888D01*
X165151484Y-99235860D01*
X165145589Y-99230668D01*
X163009093Y-97094173D01*
X162947703Y-97029591D01*
X162947702Y-97029590D01*
X162947701Y-97029589D01*
X162919846Y-97010201D01*
X162897351Y-96994544D01*
X162893588Y-96991706D01*
X162846055Y-96952947D01*
X162846048Y-96952942D01*
X162815601Y-96937039D01*
X162808893Y-96932976D01*
X162780691Y-96913347D01*
X162780688Y-96913345D01*
X162780687Y-96913345D01*
X162780683Y-96913343D01*
X162724322Y-96889156D01*
X162720066Y-96887135D01*
X162665699Y-96858736D01*
X162665692Y-96858733D01*
X162665691Y-96858733D01*
X162659650Y-96857004D01*
X162632672Y-96849284D01*
X162625272Y-96846650D01*
X162593699Y-96833101D01*
X162593700Y-96833101D01*
X162533608Y-96820751D01*
X162529033Y-96819628D01*
X162470062Y-96802755D01*
X162470067Y-96802755D01*
X162435800Y-96800145D01*
X162428022Y-96799054D01*
X162394384Y-96792142D01*
X162394383Y-96792142D01*
X162333044Y-96792142D01*
X162328337Y-96791963D01*
X162322763Y-96791538D01*
X162267166Y-96787304D01*
X162247231Y-96789843D01*
X162233082Y-96791645D01*
X162225253Y-96792142D01*
X145758425Y-96792142D01*
X145691386Y-96772457D01*
X145670744Y-96755823D01*
X134079461Y-85164540D01*
X134045976Y-85103217D01*
X134043142Y-85076859D01*
X134043142Y-76085758D01*
X134062827Y-76018719D01*
X134079469Y-75998069D01*
X134081133Y-75996405D01*
X134081133Y-75996404D01*
X134081137Y-75996401D01*
X134191071Y-75839398D01*
X134245642Y-75795778D01*
X134315140Y-75788584D01*
X134377495Y-75820106D01*
X134394216Y-75839403D01*
X134504147Y-75996402D01*
X134592055Y-76084309D01*
X134671241Y-76163495D01*
X134714317Y-76193657D01*
X134864807Y-76299032D01*
X134864809Y-76299033D01*
X134864812Y-76299035D01*
X135078979Y-76398903D01*
X135307234Y-76460063D01*
X135495560Y-76476539D01*
X135542641Y-76480659D01*
X135542642Y-76480659D01*
X135542643Y-76480659D01*
X135581876Y-76477226D01*
X135778050Y-76460063D01*
X136006305Y-76398903D01*
X136220471Y-76299035D01*
X136414043Y-76163495D01*
X136581137Y-75996401D01*
X136632601Y-75922903D01*
X169595793Y-75922903D01*
X169605672Y-76230970D01*
X169605672Y-76230975D01*
X169605673Y-76230978D01*
X169654867Y-76535261D01*
X169699137Y-76684419D01*
X169742571Y-76830763D01*
X169867333Y-77112601D01*
X169867337Y-77112609D01*
X170027123Y-77376193D01*
X170027127Y-77376198D01*
X170027133Y-77376207D01*
X170219297Y-77617174D01*
X170219299Y-77617176D01*
X170219303Y-77617180D01*
X170219304Y-77617181D01*
X170440724Y-77831614D01*
X170607862Y-77956352D01*
X170687741Y-78015968D01*
X170687743Y-78015969D01*
X170687747Y-78015972D01*
X170956318Y-78167228D01*
X171097057Y-78224207D01*
X171242018Y-78282897D01*
X171242023Y-78282898D01*
X171242025Y-78282899D01*
X171540179Y-78361084D01*
X171845883Y-78400500D01*
X171845890Y-78400500D01*
X172076980Y-78400500D01*
X172175814Y-78394154D01*
X172307601Y-78385693D01*
X172610151Y-78326772D01*
X172902683Y-78229644D01*
X172902689Y-78229640D01*
X172902693Y-78229640D01*
X173093571Y-78137717D01*
X173180393Y-78095907D01*
X173438720Y-77927754D01*
X173673424Y-77727948D01*
X173880650Y-77499769D01*
X174053169Y-77252449D01*
X174056994Y-77246966D01*
X174056996Y-77246963D01*
X174199567Y-76973683D01*
X174306020Y-76684415D01*
X174374609Y-76383908D01*
X174404206Y-76077098D01*
X174403155Y-76044336D01*
X174396241Y-75828702D01*
X174394327Y-75769022D01*
X174345133Y-75464739D01*
X174257431Y-75169244D01*
X174257429Y-75169239D01*
X174257428Y-75169236D01*
X174132666Y-74887398D01*
X174132663Y-74887391D01*
X173972877Y-74623807D01*
X173972870Y-74623799D01*
X173972866Y-74623792D01*
X173780702Y-74382825D01*
X173780700Y-74382823D01*
X173596277Y-74204220D01*
X173559276Y-74168386D01*
X173427953Y-74070377D01*
X173312258Y-73984031D01*
X173311679Y-73983705D01*
X173043682Y-73832772D01*
X172989246Y-73810733D01*
X172757981Y-73717102D01*
X172590660Y-73673226D01*
X172459821Y-73638916D01*
X172154117Y-73599500D01*
X171923026Y-73599500D01*
X171923020Y-73599500D01*
X171692406Y-73614306D01*
X171692389Y-73614308D01*
X171389854Y-73673226D01*
X171389849Y-73673228D01*
X171097310Y-73770358D01*
X171097306Y-73770359D01*
X170819613Y-73904089D01*
X170819605Y-73904094D01*
X170561286Y-74072241D01*
X170561276Y-74072248D01*
X170326581Y-74272046D01*
X170326571Y-74272056D01*
X170119354Y-74500225D01*
X170119350Y-74500229D01*
X169943005Y-74753033D01*
X169943003Y-74753037D01*
X169800432Y-75026319D01*
X169800429Y-75026326D01*
X169693981Y-75315580D01*
X169693979Y-75315590D01*
X169625391Y-75616089D01*
X169595794Y-75922902D01*
X169595793Y-75922903D01*
X136632601Y-75922903D01*
X136716677Y-75802829D01*
X136816545Y-75588663D01*
X136877705Y-75360408D01*
X136893142Y-75183966D01*
X136893142Y-74816034D01*
X136877705Y-74639592D01*
X136822873Y-74434954D01*
X136816547Y-74411344D01*
X136816546Y-74411343D01*
X136816545Y-74411337D01*
X136716677Y-74197171D01*
X136704578Y-74179891D01*
X136581136Y-74003597D01*
X136414044Y-73836506D01*
X136414037Y-73836501D01*
X136412627Y-73835514D01*
X136319577Y-73770359D01*
X136220476Y-73700967D01*
X136220472Y-73700965D01*
X136160990Y-73673228D01*
X136006305Y-73601097D01*
X136006301Y-73601096D01*
X136006297Y-73601094D01*
X135778055Y-73539938D01*
X135778045Y-73539936D01*
X135542643Y-73519341D01*
X135542641Y-73519341D01*
X135307238Y-73539936D01*
X135307228Y-73539938D01*
X135078986Y-73601094D01*
X135078977Y-73601098D01*
X134864813Y-73700964D01*
X134864811Y-73700965D01*
X134671239Y-73836505D01*
X134504147Y-74003597D01*
X134394217Y-74160595D01*
X134339640Y-74204220D01*
X134270142Y-74211414D01*
X134207787Y-74179891D01*
X134191067Y-74160595D01*
X134081136Y-74003597D01*
X133914044Y-73836506D01*
X133914037Y-73836501D01*
X133912627Y-73835514D01*
X133819577Y-73770359D01*
X133720476Y-73700967D01*
X133720472Y-73700965D01*
X133660990Y-73673228D01*
X133506305Y-73601097D01*
X133506301Y-73601096D01*
X133506297Y-73601094D01*
X133278055Y-73539938D01*
X133278045Y-73539936D01*
X133042643Y-73519341D01*
X133042641Y-73519341D01*
X132807238Y-73539936D01*
X132807228Y-73539938D01*
X132578986Y-73601094D01*
X132578977Y-73601098D01*
X132364813Y-73700964D01*
X132364811Y-73700965D01*
X132171239Y-73836505D01*
X132004150Y-74003594D01*
X131894216Y-74160596D01*
X131839639Y-74204221D01*
X131770140Y-74211413D01*
X131707786Y-74179891D01*
X131691066Y-74160595D01*
X131581136Y-74003597D01*
X131414044Y-73836506D01*
X131414037Y-73836501D01*
X131412627Y-73835514D01*
X131319577Y-73770359D01*
X131220476Y-73700967D01*
X131220472Y-73700965D01*
X131160990Y-73673228D01*
X131006305Y-73601097D01*
X131006301Y-73601096D01*
X131006297Y-73601094D01*
X130778055Y-73539938D01*
X130778045Y-73539936D01*
X130542643Y-73519341D01*
X130542641Y-73519341D01*
X130307238Y-73539936D01*
X130307228Y-73539938D01*
X130078986Y-73601094D01*
X130078977Y-73601098D01*
X129864813Y-73700964D01*
X129864811Y-73700965D01*
X129671239Y-73836505D01*
X129504147Y-74003597D01*
X129394217Y-74160595D01*
X129339640Y-74204220D01*
X129270142Y-74211414D01*
X129207787Y-74179891D01*
X129191067Y-74160595D01*
X129081136Y-74003597D01*
X128914044Y-73836506D01*
X128914037Y-73836501D01*
X128912627Y-73835514D01*
X128819577Y-73770359D01*
X128720476Y-73700967D01*
X128720472Y-73700965D01*
X128660990Y-73673228D01*
X128506305Y-73601097D01*
X128506301Y-73601096D01*
X128506297Y-73601094D01*
X128278055Y-73539938D01*
X128278045Y-73539936D01*
X128042643Y-73519341D01*
X128042641Y-73519341D01*
X127807238Y-73539936D01*
X127807228Y-73539938D01*
X127578986Y-73601094D01*
X127578977Y-73601098D01*
X127364813Y-73700964D01*
X127364811Y-73700965D01*
X127171239Y-73836505D01*
X127024040Y-73983705D01*
X126962717Y-74017190D01*
X126893025Y-74012206D01*
X126837092Y-73970334D01*
X126830820Y-73961120D01*
X126735354Y-73806344D01*
X126611299Y-73682289D01*
X126611298Y-73682288D01*
X126501081Y-73614306D01*
X126461978Y-73590187D01*
X126461973Y-73590185D01*
X126460504Y-73589698D01*
X126295439Y-73535001D01*
X126295437Y-73535000D01*
X126192652Y-73524500D01*
X124892640Y-73524500D01*
X124892622Y-73524501D01*
X124842371Y-73529635D01*
X124773678Y-73516865D01*
X124722794Y-73468984D01*
X124705874Y-73401194D01*
X124714577Y-73360380D01*
X124766972Y-73228877D01*
X124766971Y-73228877D01*
X124766973Y-73228875D01*
X124796902Y-73046317D01*
X124786887Y-72861593D01*
X124761768Y-72771122D01*
X124737397Y-72683343D01*
X124737394Y-72683337D01*
X124650743Y-72519897D01*
X124530979Y-72378900D01*
X124452091Y-72318931D01*
X124383706Y-72266946D01*
X124215809Y-72189268D01*
X124215805Y-72189266D01*
X124035139Y-72149500D01*
X123896529Y-72149500D01*
X123896525Y-72149500D01*
X123758730Y-72164486D01*
X123583418Y-72223557D01*
X123583416Y-72223558D01*
X123424904Y-72318931D01*
X123424903Y-72318932D01*
X123290601Y-72446149D01*
X123186780Y-72599276D01*
X123118311Y-72771122D01*
X123088382Y-72953685D01*
X123098397Y-73138406D01*
X123098397Y-73138411D01*
X123147886Y-73316656D01*
X123147889Y-73316662D01*
X123234540Y-73480102D01*
X123335958Y-73599500D01*
X123354305Y-73621100D01*
X123501578Y-73733054D01*
X123669475Y-73810732D01*
X123669476Y-73810732D01*
X123669478Y-73810733D01*
X123724290Y-73822797D01*
X123850145Y-73850500D01*
X123850148Y-73850500D01*
X123988749Y-73850500D01*
X123988755Y-73850500D01*
X124112241Y-73837070D01*
X124181015Y-73849391D01*
X124232211Y-73896938D01*
X124249573Y-73964616D01*
X124243353Y-73999346D01*
X124202643Y-74122200D01*
X124202642Y-74122204D01*
X124192142Y-74224983D01*
X124192142Y-75775001D01*
X124192143Y-75775018D01*
X124202642Y-75877796D01*
X124202643Y-75877799D01*
X124257827Y-76044331D01*
X124257829Y-76044336D01*
X124283378Y-76085758D01*
X124349929Y-76193655D01*
X124349931Y-76193657D01*
X124473986Y-76317712D01*
X124483237Y-76323418D01*
X124529962Y-76375365D01*
X124542141Y-76428957D01*
X124542141Y-85326860D01*
X124522456Y-85393899D01*
X124505822Y-85414541D01*
X113164541Y-96755823D01*
X113103218Y-96789308D01*
X113076860Y-96792142D01*
X96055359Y-96792142D01*
X95966279Y-96789885D01*
X95966270Y-96789885D01*
X95915118Y-96799054D01*
X95905896Y-96800706D01*
X95901237Y-96801360D01*
X95840206Y-96807567D01*
X95840204Y-96807568D01*
X95807422Y-96817852D01*
X95799798Y-96819723D01*
X95796699Y-96820279D01*
X95765991Y-96825783D01*
X95765983Y-96825785D01*
X95709024Y-96848537D01*
X95704588Y-96850116D01*
X95646057Y-96868482D01*
X95646054Y-96868483D01*
X95646052Y-96868484D01*
X95646045Y-96868487D01*
X95616026Y-96885149D01*
X95608932Y-96888518D01*
X95577032Y-96901261D01*
X95577030Y-96901261D01*
X95577025Y-96901264D01*
X95577018Y-96901268D01*
X95577019Y-96901268D01*
X95525796Y-96935025D01*
X95521768Y-96937466D01*
X95468144Y-96967230D01*
X95468141Y-96967232D01*
X95442069Y-96989612D01*
X95435802Y-96994337D01*
X95407124Y-97013240D01*
X95407117Y-97013245D01*
X95363758Y-97056604D01*
X95360303Y-97059806D01*
X95313748Y-97099774D01*
X95313747Y-97099775D01*
X95292718Y-97126942D01*
X95287526Y-97132836D01*
X93329960Y-99090402D01*
X93265374Y-99151798D01*
X93230327Y-99202150D01*
X93227490Y-99205912D01*
X93188730Y-99253448D01*
X93188727Y-99253453D01*
X93172820Y-99283903D01*
X93168752Y-99290617D01*
X93149130Y-99318810D01*
X93124937Y-99375186D01*
X93122916Y-99379440D01*
X93094519Y-99433807D01*
X93094518Y-99433808D01*
X93085068Y-99466831D01*
X93082435Y-99474227D01*
X93068887Y-99505799D01*
X93056541Y-99565875D01*
X93055418Y-99570451D01*
X93038541Y-99629433D01*
X93038541Y-99629435D01*
X93035931Y-99663697D01*
X93034842Y-99671464D01*
X93029408Y-99697908D01*
X93027928Y-99705114D01*
X93027928Y-99766453D01*
X93027749Y-99771162D01*
X93023090Y-99832330D01*
X93024624Y-99844373D01*
X93027431Y-99866416D01*
X93027928Y-99874244D01*
X93027928Y-100736076D01*
X93008243Y-100803115D01*
X92963357Y-100844907D01*
X92944118Y-100855412D01*
X92944110Y-100855417D01*
X92715040Y-101026896D01*
X92715022Y-101026912D01*
X92512698Y-101229236D01*
X92512682Y-101229254D01*
X92341203Y-101458324D01*
X92341198Y-101458332D01*
X92204063Y-101709475D01*
X92104056Y-101977604D01*
X92043232Y-102257208D01*
X92022818Y-102542640D01*
X92022818Y-102542643D01*
X89709716Y-102542643D01*
X89712307Y-102498151D01*
X89681457Y-102323188D01*
X89668281Y-102292642D01*
X90948428Y-102292642D01*
X90948428Y-100994814D01*
X90948427Y-100994797D01*
X90942026Y-100935269D01*
X90942024Y-100935262D01*
X90891782Y-100800555D01*
X90891778Y-100800548D01*
X90805618Y-100685454D01*
X90805615Y-100685451D01*
X90690521Y-100599291D01*
X90690514Y-100599287D01*
X90555807Y-100549045D01*
X90555800Y-100549043D01*
X90496272Y-100542642D01*
X89198428Y-100542642D01*
X89198428Y-101820839D01*
X89037259Y-101782642D01*
X88904161Y-101782642D01*
X88771967Y-101798093D01*
X88698428Y-101824859D01*
X88698428Y-100542642D01*
X87400583Y-100542642D01*
X87341055Y-100549043D01*
X87341048Y-100549045D01*
X87206341Y-100599287D01*
X87206334Y-100599291D01*
X87091240Y-100685451D01*
X87091237Y-100685454D01*
X87005077Y-100800548D01*
X87005073Y-100800555D01*
X86954831Y-100935262D01*
X86954829Y-100935269D01*
X86948428Y-100994797D01*
X86948428Y-102292642D01*
X88229945Y-102292642D01*
X88194879Y-102409771D01*
X88184549Y-102587133D01*
X88215399Y-102762096D01*
X88228575Y-102792642D01*
X86948428Y-102792642D01*
X86948428Y-104090486D01*
X80879329Y-104090486D01*
X80865431Y-104058371D01*
X80799026Y-103904917D01*
X80675259Y-103606118D01*
X80674208Y-103603399D01*
X80649627Y-103535123D01*
X80576584Y-103332236D01*
X80470669Y-103025306D01*
X80469748Y-103022409D01*
X80389924Y-102747653D01*
X80302194Y-102432954D01*
X80301414Y-102429843D01*
X80239725Y-102153862D01*
X80225096Y-102085712D01*
X80170484Y-101831305D01*
X80169884Y-101828084D01*
X80126603Y-101554824D01*
X80076058Y-101222719D01*
X80075634Y-101219286D01*
X80050911Y-100957743D01*
X80019258Y-100609416D01*
X80019039Y-100605829D01*
X80012992Y-100413414D01*
X80011495Y-100363887D01*
X80000500Y-100000000D01*
X80000500Y-99999500D01*
X80000500Y-93922903D01*
X82595793Y-93922903D01*
X82605672Y-94230970D01*
X82605672Y-94230975D01*
X82605673Y-94230978D01*
X82654867Y-94535261D01*
X82699137Y-94684419D01*
X82742571Y-94830763D01*
X82867333Y-95112601D01*
X82867337Y-95112609D01*
X83027123Y-95376193D01*
X83027127Y-95376198D01*
X83027133Y-95376207D01*
X83219297Y-95617174D01*
X83219299Y-95617176D01*
X83219303Y-95617180D01*
X83219304Y-95617181D01*
X83440724Y-95831614D01*
X83607862Y-95956352D01*
X83687741Y-96015968D01*
X83687743Y-96015969D01*
X83687747Y-96015972D01*
X83956318Y-96167228D01*
X84097057Y-96224207D01*
X84242018Y-96282897D01*
X84242023Y-96282898D01*
X84242025Y-96282899D01*
X84540179Y-96361084D01*
X84845883Y-96400500D01*
X84845890Y-96400500D01*
X85076980Y-96400500D01*
X85175814Y-96394154D01*
X85307601Y-96385693D01*
X85610151Y-96326772D01*
X85902683Y-96229644D01*
X85902689Y-96229640D01*
X85902693Y-96229640D01*
X86093571Y-96137717D01*
X86180393Y-96095907D01*
X86438720Y-95927754D01*
X86673424Y-95727948D01*
X86880650Y-95499769D01*
X87056996Y-95246963D01*
X87199567Y-94973683D01*
X87306020Y-94684415D01*
X87374609Y-94383908D01*
X87404206Y-94077098D01*
X87394327Y-93769022D01*
X87345133Y-93464739D01*
X87257431Y-93169244D01*
X87257429Y-93169239D01*
X87257428Y-93169236D01*
X87132666Y-92887398D01*
X87132663Y-92887391D01*
X86972877Y-92623807D01*
X86972870Y-92623799D01*
X86972866Y-92623792D01*
X86780702Y-92382825D01*
X86780700Y-92382823D01*
X86559279Y-92168389D01*
X86559276Y-92168386D01*
X86430450Y-92072241D01*
X86312258Y-91984031D01*
X86312253Y-91984028D01*
X86043682Y-91832772D01*
X86006383Y-91817671D01*
X85757981Y-91717102D01*
X85590660Y-91673226D01*
X85459821Y-91638916D01*
X85154117Y-91599500D01*
X84923026Y-91599500D01*
X84923020Y-91599500D01*
X84692406Y-91614306D01*
X84692389Y-91614308D01*
X84389854Y-91673226D01*
X84389849Y-91673228D01*
X84097310Y-91770358D01*
X84097306Y-91770359D01*
X83819613Y-91904089D01*
X83819605Y-91904094D01*
X83561286Y-92072241D01*
X83561276Y-92072248D01*
X83326581Y-92272046D01*
X83326571Y-92272056D01*
X83119354Y-92500225D01*
X83119350Y-92500229D01*
X82943005Y-92753033D01*
X82943003Y-92753037D01*
X82800432Y-93026319D01*
X82800429Y-93026326D01*
X82693981Y-93315580D01*
X82693979Y-93315590D01*
X82625391Y-93616089D01*
X82595794Y-93922902D01*
X82595793Y-93922903D01*
X80000500Y-93922903D01*
X80000500Y-79999999D01*
X80013015Y-79585824D01*
X80019039Y-79394164D01*
X80019258Y-79390588D01*
X80050929Y-79042056D01*
X80075635Y-78780705D01*
X80076056Y-78777289D01*
X80126583Y-78445304D01*
X80169886Y-78171901D01*
X80170482Y-78168708D01*
X80239735Y-77846090D01*
X80301422Y-77570121D01*
X80302187Y-77567073D01*
X80389931Y-77252319D01*
X80469755Y-76977567D01*
X80470658Y-76974724D01*
X80576591Y-76667743D01*
X80577449Y-76665360D01*
X80619757Y-76547844D01*
X96460000Y-76547844D01*
X96466401Y-76607372D01*
X96466403Y-76607379D01*
X96516645Y-76742086D01*
X96516649Y-76742093D01*
X96602809Y-76857187D01*
X96602812Y-76857190D01*
X96717906Y-76943350D01*
X96717913Y-76943354D01*
X96852620Y-76993596D01*
X96852627Y-76993598D01*
X96912155Y-76999999D01*
X96912172Y-77000000D01*
X98210000Y-77000000D01*
X98210000Y-75721802D01*
X98371169Y-75760000D01*
X98504267Y-75760000D01*
X98636461Y-75744549D01*
X98710000Y-75717782D01*
X98710000Y-77000000D01*
X100007828Y-77000000D01*
X100007844Y-76999999D01*
X100067372Y-76993598D01*
X100067379Y-76993596D01*
X100202086Y-76943354D01*
X100202093Y-76943350D01*
X100317187Y-76857190D01*
X100317190Y-76857187D01*
X100403350Y-76742093D01*
X100403354Y-76742086D01*
X100453596Y-76607379D01*
X100453598Y-76607372D01*
X100459999Y-76547844D01*
X100460000Y-76547827D01*
X100460000Y-75250000D01*
X99178483Y-75250000D01*
X99213549Y-75132871D01*
X99221288Y-75000001D01*
X101534390Y-75000001D01*
X101554804Y-75285433D01*
X101615628Y-75565037D01*
X101615630Y-75565043D01*
X101615631Y-75565046D01*
X101704320Y-75802829D01*
X101715635Y-75833166D01*
X101852770Y-76084309D01*
X101852775Y-76084317D01*
X102024254Y-76313387D01*
X102024270Y-76313405D01*
X102226594Y-76515729D01*
X102226612Y-76515745D01*
X102455682Y-76687224D01*
X102455690Y-76687229D01*
X102706833Y-76824364D01*
X102706832Y-76824364D01*
X102706836Y-76824365D01*
X102706839Y-76824367D01*
X102974954Y-76924369D01*
X102974960Y-76924370D01*
X102974962Y-76924371D01*
X103254566Y-76985195D01*
X103254568Y-76985195D01*
X103254572Y-76985196D01*
X103508220Y-77003337D01*
X103539999Y-77005610D01*
X103540000Y-77005610D01*
X103540001Y-77005610D01*
X103568595Y-77003564D01*
X103825428Y-76985196D01*
X103873715Y-76974692D01*
X104105037Y-76924371D01*
X104105037Y-76924370D01*
X104105046Y-76924369D01*
X104373161Y-76824367D01*
X104624315Y-76687226D01*
X104853395Y-76515739D01*
X105055739Y-76313395D01*
X105227226Y-76084315D01*
X105364367Y-75833161D01*
X105464369Y-75565046D01*
X105508886Y-75360403D01*
X105525195Y-75285433D01*
X105525195Y-75285432D01*
X105525196Y-75285428D01*
X105545610Y-75000000D01*
X105545156Y-74993658D01*
X105541519Y-74942808D01*
X105525196Y-74714572D01*
X105521358Y-74696930D01*
X105464371Y-74434962D01*
X105464370Y-74434960D01*
X105464369Y-74434954D01*
X105364367Y-74166839D01*
X105339994Y-74122204D01*
X105227229Y-73915690D01*
X105227224Y-73915682D01*
X105055745Y-73686612D01*
X105055729Y-73686594D01*
X104853405Y-73484270D01*
X104853387Y-73484254D01*
X104624317Y-73312775D01*
X104624309Y-73312770D01*
X104373166Y-73175635D01*
X104373167Y-73175635D01*
X104265914Y-73135632D01*
X104105046Y-73075631D01*
X104105043Y-73075630D01*
X104105037Y-73075628D01*
X103825433Y-73014804D01*
X103540001Y-72994390D01*
X103539999Y-72994390D01*
X103254566Y-73014804D01*
X102974962Y-73075628D01*
X102706833Y-73175635D01*
X102455690Y-73312770D01*
X102455682Y-73312775D01*
X102226612Y-73484254D01*
X102226594Y-73484270D01*
X102024270Y-73686594D01*
X102024254Y-73686612D01*
X101852775Y-73915682D01*
X101852770Y-73915690D01*
X101715635Y-74166833D01*
X101615628Y-74434962D01*
X101554804Y-74714566D01*
X101534390Y-74999998D01*
X101534390Y-75000001D01*
X99221288Y-75000001D01*
X99223879Y-74955509D01*
X99193029Y-74780546D01*
X99179853Y-74750000D01*
X100459999Y-74750000D01*
X100460000Y-73452172D01*
X100459999Y-73452155D01*
X100453598Y-73392627D01*
X100453596Y-73392620D01*
X100403354Y-73257913D01*
X100403350Y-73257906D01*
X100317190Y-73142812D01*
X100317187Y-73142809D01*
X100202093Y-73056649D01*
X100202086Y-73056645D01*
X100067379Y-73006403D01*
X100067372Y-73006401D01*
X100007844Y-73000000D01*
X98710000Y-73000000D01*
X98710000Y-74278197D01*
X98548831Y-74240000D01*
X98415733Y-74240000D01*
X98283539Y-74255451D01*
X98210000Y-74282217D01*
X98210000Y-73000000D01*
X96912155Y-73000000D01*
X96852627Y-73006401D01*
X96852620Y-73006403D01*
X96717913Y-73056645D01*
X96717906Y-73056649D01*
X96602812Y-73142809D01*
X96602809Y-73142812D01*
X96516649Y-73257906D01*
X96516645Y-73257913D01*
X96466403Y-73392620D01*
X96466401Y-73392627D01*
X96460000Y-73452155D01*
X96460000Y-74750000D01*
X97741517Y-74750000D01*
X97706451Y-74867129D01*
X97696121Y-75044491D01*
X97726971Y-75219454D01*
X97740147Y-75250000D01*
X96460000Y-75250000D01*
X96460000Y-76547844D01*
X80619757Y-76547844D01*
X80674224Y-76396556D01*
X80675247Y-76393910D01*
X80799046Y-76095033D01*
X80914592Y-75828022D01*
X81056404Y-75536771D01*
X81093106Y-75464739D01*
X81188923Y-75276686D01*
X81347743Y-74995091D01*
X81496634Y-74743330D01*
X81671925Y-74472213D01*
X81836569Y-74229945D01*
X82027725Y-73970156D01*
X82207446Y-73738461D01*
X82413784Y-73490875D01*
X82607812Y-73270792D01*
X82828669Y-73036172D01*
X83036172Y-72828669D01*
X83270774Y-72607829D01*
X83271559Y-72607138D01*
X83490875Y-72413784D01*
X83738461Y-72207446D01*
X83970156Y-72027725D01*
X84229945Y-71836569D01*
X84472213Y-71671925D01*
X84743330Y-71496634D01*
X84995091Y-71347743D01*
X85276686Y-71188923D01*
X85536771Y-71056404D01*
X85828014Y-70914597D01*
X85828767Y-70914271D01*
X86095033Y-70799046D01*
X86393910Y-70675247D01*
X86396556Y-70674224D01*
X86667732Y-70576594D01*
X86974724Y-70470658D01*
X86977567Y-70469755D01*
X87252319Y-70389931D01*
X87567073Y-70302187D01*
X87570121Y-70301422D01*
X87846090Y-70239735D01*
X88168708Y-70170482D01*
X88171901Y-70169886D01*
X88445304Y-70126583D01*
X88777289Y-70076056D01*
X88780705Y-70075635D01*
X89042056Y-70050929D01*
X89390587Y-70019258D01*
X89394166Y-70019039D01*
X89586085Y-70013007D01*
X90000000Y-70000500D01*
X90000500Y-70000500D01*
X170035034Y-70000500D01*
X170035534Y-70000500D01*
X170468692Y-70013590D01*
G37*
%TD.AperFunction*%
%TD*%
M02*
