%TF.GenerationSoftware,KiCad,Pcbnew,7.0.6+dfsg-1*%
%TF.CreationDate,2023-07-26T00:01:03-03:00*%
%TF.ProjectId,DMX_servo_controller_hardware,444d585f-7365-4727-966f-5f636f6e7472,rev?*%
%TF.SameCoordinates,Original*%
%TF.FileFunction,Soldermask,Top*%
%TF.FilePolarity,Negative*%
%FSLAX46Y46*%
G04 Gerber Fmt 4.6, Leading zero omitted, Abs format (unit mm)*
G04 Created by KiCad (PCBNEW 7.0.6+dfsg-1) date 2023-07-26 00:01:03*
%MOMM*%
%LPD*%
G01*
G04 APERTURE LIST*
G04 Aperture macros list*
%AMRoundRect*
0 Rectangle with rounded corners*
0 $1 Rounding radius*
0 $2 $3 $4 $5 $6 $7 $8 $9 X,Y pos of 4 corners*
0 Add a 4 corners polygon primitive as box body*
4,1,4,$2,$3,$4,$5,$6,$7,$8,$9,$2,$3,0*
0 Add four circle primitives for the rounded corners*
1,1,$1+$1,$2,$3*
1,1,$1+$1,$4,$5*
1,1,$1+$1,$6,$7*
1,1,$1+$1,$8,$9*
0 Add four rect primitives between the rounded corners*
20,1,$1+$1,$2,$3,$4,$5,0*
20,1,$1+$1,$4,$5,$6,$7,0*
20,1,$1+$1,$6,$7,$8,$9,0*
20,1,$1+$1,$8,$9,$2,$3,0*%
G04 Aperture macros list end*
%ADD10RoundRect,0.250000X0.337500X0.475000X-0.337500X0.475000X-0.337500X-0.475000X0.337500X-0.475000X0*%
%ADD11RoundRect,0.250000X-0.450000X0.350000X-0.450000X-0.350000X0.450000X-0.350000X0.450000X0.350000X0*%
%ADD12C,1.200000*%
%ADD13RoundRect,0.250000X-0.725000X0.600000X-0.725000X-0.600000X0.725000X-0.600000X0.725000X0.600000X0*%
%ADD14O,1.950000X1.700000*%
%ADD15RoundRect,0.250000X-0.600000X-0.725000X0.600000X-0.725000X0.600000X0.725000X-0.600000X0.725000X0*%
%ADD16O,1.700000X1.950000*%
%ADD17C,4.300000*%
%ADD18RoundRect,0.250000X-0.475000X0.337500X-0.475000X-0.337500X0.475000X-0.337500X0.475000X0.337500X0*%
%ADD19RoundRect,0.250000X-0.350000X-0.450000X0.350000X-0.450000X0.350000X0.450000X-0.350000X0.450000X0*%
%ADD20RoundRect,0.250000X-0.337500X-0.475000X0.337500X-0.475000X0.337500X0.475000X-0.337500X0.475000X0*%
%ADD21RoundRect,0.250000X0.350000X0.450000X-0.350000X0.450000X-0.350000X-0.450000X0.350000X-0.450000X0*%
%ADD22R,2.000000X2.000000*%
%ADD23C,2.000000*%
%ADD24RoundRect,0.250000X0.725000X-0.600000X0.725000X0.600000X-0.725000X0.600000X-0.725000X-0.600000X0*%
%ADD25RoundRect,0.150000X-0.150000X0.587500X-0.150000X-0.587500X0.150000X-0.587500X0.150000X0.587500X0*%
%ADD26R,3.000000X3.000000*%
%ADD27C,3.000000*%
%ADD28O,1.800000X1.800000*%
%ADD29O,1.500000X1.500000*%
%ADD30O,1.700000X1.700000*%
%ADD31R,1.700000X3.500000*%
%ADD32R,1.700000X1.700000*%
%ADD33R,3.500000X1.700000*%
%ADD34RoundRect,0.100000X-0.637500X-0.100000X0.637500X-0.100000X0.637500X0.100000X-0.637500X0.100000X0*%
%ADD35R,1.000000X1.700000*%
%ADD36RoundRect,0.250000X1.000000X0.650000X-1.000000X0.650000X-1.000000X-0.650000X1.000000X-0.650000X0*%
%ADD37R,1.600000X1.600000*%
%ADD38O,1.600000X1.600000*%
%ADD39R,1.750000X2.250000*%
%ADD40O,1.750000X2.250000*%
%ADD41RoundRect,0.249344X-0.640656X0.510656X-0.640656X-0.510656X0.640656X-0.510656X0.640656X0.510656X0*%
G04 APERTURE END LIST*
D10*
%TO.C,C9*%
X118400000Y-90655000D03*
X116325000Y-90655000D03*
%TD*%
D11*
%TO.C,R16*%
X140150000Y-147531250D03*
X140150000Y-149531250D03*
%TD*%
D12*
%TO.C,J5*%
X192650000Y-88700000D03*
D13*
X194650000Y-90300000D03*
D14*
X194650000Y-92800000D03*
X194650000Y-95300000D03*
X194650000Y-97800000D03*
X194650000Y-100300000D03*
%TD*%
D12*
%TO.C,J9*%
X172900000Y-156531250D03*
D15*
X174500000Y-154531250D03*
D16*
X177000000Y-154531250D03*
X179500000Y-154531250D03*
X182000000Y-154531250D03*
X184500000Y-154531250D03*
%TD*%
D11*
%TO.C,R11*%
X117975000Y-147531250D03*
X117975000Y-149531250D03*
%TD*%
%TO.C,R19*%
X157325000Y-147531250D03*
X157325000Y-149531250D03*
%TD*%
D17*
%TO.C,H1*%
X105000000Y-65000000D03*
%TD*%
D11*
%TO.C,R25*%
X182000000Y-147531250D03*
X182000000Y-149531250D03*
%TD*%
%TO.C,R23*%
X177000000Y-147531250D03*
X177000000Y-149531250D03*
%TD*%
D12*
%TO.C,J1*%
X149200000Y-66875000D03*
D15*
X150800000Y-64875000D03*
D16*
X153300000Y-64875000D03*
X155800000Y-64875000D03*
%TD*%
D18*
%TO.C,C11*%
X169399416Y-80242500D03*
X169399416Y-82317500D03*
%TD*%
D10*
%TO.C,C5*%
X137000727Y-74000000D03*
X134925727Y-74000000D03*
%TD*%
D11*
%TO.C,R20*%
X159825000Y-147531250D03*
X159825000Y-149531250D03*
%TD*%
D19*
%TO.C,R1*%
X118900000Y-118500000D03*
X120900000Y-118500000D03*
%TD*%
D11*
%TO.C,R22*%
X174500000Y-147531250D03*
X174500000Y-149531250D03*
%TD*%
D19*
%TO.C,R6*%
X164481000Y-75488800D03*
X166481000Y-75488800D03*
%TD*%
%TO.C,R8*%
X164481000Y-73507600D03*
X166481000Y-73507600D03*
%TD*%
D20*
%TO.C,C6*%
X179517583Y-98992498D03*
X181592583Y-98992498D03*
%TD*%
D12*
%TO.C,J2*%
X163500000Y-66875000D03*
D15*
X165100000Y-64875000D03*
D16*
X167600000Y-64875000D03*
X170100000Y-64875000D03*
%TD*%
D11*
%TO.C,R21*%
X162325000Y-147531250D03*
X162325000Y-149531250D03*
%TD*%
D21*
%TO.C,R5*%
X157250000Y-133281250D03*
X155250000Y-133281250D03*
%TD*%
D19*
%TO.C,R7*%
X164481000Y-77456014D03*
X166481000Y-77456014D03*
%TD*%
D11*
%TO.C,R17*%
X142650000Y-147531250D03*
X142650000Y-149531250D03*
%TD*%
%TO.C,R28*%
X134530000Y-86300000D03*
X134530000Y-88300000D03*
%TD*%
D22*
%TO.C,C3*%
X122000000Y-77000000D03*
D23*
X122000000Y-82000000D03*
%TD*%
D10*
%TO.C,C1*%
X150637500Y-132650000D03*
X148562500Y-132650000D03*
%TD*%
D12*
%TO.C,J4*%
X195600000Y-116800000D03*
D24*
X193600000Y-115200000D03*
D14*
X193600000Y-112700000D03*
X193600000Y-110200000D03*
X193600000Y-107700000D03*
%TD*%
D21*
%TO.C,R27*%
X176500000Y-98992498D03*
X174500000Y-98992498D03*
%TD*%
D12*
%TO.C,J7*%
X133550000Y-156531250D03*
D15*
X135150000Y-154531250D03*
D16*
X137650000Y-154531250D03*
X140150000Y-154531250D03*
X142650000Y-154531250D03*
X145150000Y-154531250D03*
%TD*%
D10*
%TO.C,C2*%
X150637500Y-130400000D03*
X148562500Y-130400000D03*
%TD*%
D12*
%TO.C,J8*%
X153225000Y-156531250D03*
D15*
X154825000Y-154531250D03*
D16*
X157325000Y-154531250D03*
X159825000Y-154531250D03*
X162325000Y-154531250D03*
X164825000Y-154531250D03*
%TD*%
D11*
%TO.C,R18*%
X154825000Y-147531250D03*
X154825000Y-149531250D03*
%TD*%
D21*
%TO.C,R2*%
X125500000Y-118500000D03*
X123500000Y-118500000D03*
%TD*%
D25*
%TO.C,D1*%
X160259868Y-71419465D03*
X158359868Y-71419465D03*
X159309868Y-73294465D03*
%TD*%
D12*
%TO.C,J6*%
X113875000Y-156531250D03*
D15*
X115475000Y-154531250D03*
D16*
X117975000Y-154531250D03*
X120475000Y-154531250D03*
X122975000Y-154531250D03*
X125475000Y-154531250D03*
%TD*%
D26*
%TO.C,J3*%
X108600000Y-76860000D03*
D27*
X108600000Y-81940000D03*
%TD*%
D10*
%TO.C,C7*%
X142015798Y-70993615D03*
X139940798Y-70993615D03*
%TD*%
D25*
%TO.C,Q2*%
X156194800Y-123827300D03*
X154294800Y-123827300D03*
X155244800Y-125702300D03*
%TD*%
D28*
%TO.C,U4*%
X108370000Y-107725000D03*
D29*
X111400000Y-107425000D03*
X111400000Y-102575000D03*
D28*
X108370000Y-102275000D03*
D30*
X108240000Y-113890000D03*
D31*
X108240000Y-114790000D03*
D30*
X110780000Y-113890000D03*
D31*
X110780000Y-114790000D03*
D32*
X113320000Y-113890000D03*
D31*
X113320000Y-114790000D03*
D30*
X115860000Y-113890000D03*
D31*
X115860000Y-114790000D03*
D30*
X118400000Y-113890000D03*
D31*
X118400000Y-114790000D03*
D30*
X120940000Y-113890000D03*
D31*
X120940000Y-114790000D03*
D30*
X123480000Y-113890000D03*
D31*
X123480000Y-114790000D03*
D32*
X126020000Y-113890000D03*
D31*
X126020000Y-114790000D03*
D30*
X128560000Y-113890000D03*
D31*
X128560000Y-114790000D03*
D30*
X131100000Y-113890000D03*
D31*
X131100000Y-114790000D03*
D30*
X133640000Y-113890000D03*
D31*
X133640000Y-114790000D03*
D30*
X136180000Y-113890000D03*
D31*
X136180000Y-114790000D03*
D32*
X138720000Y-113890000D03*
D31*
X138720000Y-114790000D03*
D30*
X141260000Y-113890000D03*
D31*
X141260000Y-114790000D03*
D30*
X143800000Y-113890000D03*
D31*
X143800000Y-114790000D03*
D30*
X146340000Y-113890000D03*
D31*
X146340000Y-114790000D03*
D30*
X148880000Y-113890000D03*
D31*
X148880000Y-114790000D03*
D32*
X151420000Y-113890000D03*
D31*
X151420000Y-114790000D03*
D30*
X153960000Y-113890000D03*
D31*
X153960000Y-114790000D03*
D30*
X156500000Y-113890000D03*
D31*
X156500000Y-114790000D03*
D30*
X156500000Y-96110000D03*
D31*
X156500000Y-95210000D03*
D30*
X153960000Y-96110000D03*
D31*
X153960000Y-95210000D03*
D32*
X151420000Y-96110000D03*
D31*
X151420000Y-95210000D03*
D30*
X148880000Y-96110000D03*
D31*
X148880000Y-95210000D03*
D30*
X146340000Y-96110000D03*
D31*
X146340000Y-95210000D03*
D30*
X143800000Y-96110000D03*
D31*
X143800000Y-95210000D03*
D30*
X141260000Y-96110000D03*
D31*
X141260000Y-95210000D03*
D32*
X138720000Y-96110000D03*
D31*
X138720000Y-95210000D03*
D30*
X136180000Y-96110000D03*
D31*
X136180000Y-95210000D03*
D30*
X133640000Y-96110000D03*
D31*
X133640000Y-95210000D03*
D30*
X131100000Y-96110000D03*
D31*
X131100000Y-95210000D03*
D30*
X128560000Y-96110000D03*
D31*
X128560000Y-95210000D03*
D32*
X126020000Y-96110000D03*
D31*
X126020000Y-95210000D03*
D30*
X123480000Y-96110000D03*
D31*
X123480000Y-95210000D03*
D30*
X120940000Y-96110000D03*
D31*
X120940000Y-95210000D03*
D30*
X118400000Y-96110000D03*
D31*
X118400000Y-95210000D03*
D30*
X115860000Y-96110000D03*
D31*
X115860000Y-95210000D03*
D32*
X113320000Y-96110000D03*
D31*
X113320000Y-95210000D03*
D30*
X110780000Y-96110000D03*
D31*
X110780000Y-95210000D03*
D30*
X108240000Y-96110000D03*
D31*
X108240000Y-95210000D03*
D30*
X156270000Y-107540000D03*
D33*
X157170000Y-107540000D03*
D32*
X156270000Y-105000000D03*
D33*
X157170000Y-105000000D03*
D30*
X156270000Y-102460000D03*
D33*
X157170000Y-102460000D03*
%TD*%
D21*
%TO.C,R3*%
X162250000Y-133281250D03*
X160250000Y-133281250D03*
%TD*%
D11*
%TO.C,R15*%
X137650000Y-147531250D03*
X137650000Y-149531250D03*
%TD*%
D17*
%TO.C,H4*%
X195000000Y-155000000D03*
%TD*%
D34*
%TO.C,U1*%
X146887500Y-135556250D03*
X146887500Y-136206250D03*
X146887500Y-136856250D03*
X146887500Y-137506250D03*
X146887500Y-138156250D03*
X146887500Y-138806250D03*
X146887500Y-139456250D03*
X146887500Y-140106250D03*
X146887500Y-140756250D03*
X146887500Y-141406250D03*
X146887500Y-142056250D03*
X146887500Y-142706250D03*
X146887500Y-143356250D03*
X146887500Y-144006250D03*
X152612500Y-144006250D03*
X152612500Y-143356250D03*
X152612500Y-142706250D03*
X152612500Y-142056250D03*
X152612500Y-141406250D03*
X152612500Y-140756250D03*
X152612500Y-140106250D03*
X152612500Y-139456250D03*
X152612500Y-138806250D03*
X152612500Y-138156250D03*
X152612500Y-137506250D03*
X152612500Y-136856250D03*
X152612500Y-136206250D03*
X152612500Y-135556250D03*
%TD*%
D11*
%TO.C,R14*%
X135150000Y-147531250D03*
X135150000Y-149531250D03*
%TD*%
D10*
%TO.C,C8*%
X142000000Y-74074242D03*
X139925000Y-74074242D03*
%TD*%
D35*
%TO.C,SW1*%
X137600000Y-88300000D03*
X137600000Y-82000000D03*
X141400000Y-88300000D03*
X141400000Y-82000000D03*
%TD*%
D36*
%TO.C,D2*%
X108000000Y-88500000D03*
X104000000Y-88500000D03*
%TD*%
D11*
%TO.C,R12*%
X120475000Y-147531250D03*
X120475000Y-149531250D03*
%TD*%
D10*
%TO.C,C10*%
X118400000Y-87645000D03*
X116325000Y-87645000D03*
%TD*%
D11*
%TO.C,R10*%
X115475000Y-147531250D03*
X115475000Y-149531250D03*
%TD*%
D10*
%TO.C,C4*%
X137000727Y-70993615D03*
X134925727Y-70993615D03*
%TD*%
D37*
%TO.C,U2*%
X179800000Y-80250000D03*
D38*
X179800000Y-77710000D03*
X179800000Y-75170000D03*
X179800000Y-72630000D03*
X172180000Y-72630000D03*
X172180000Y-75170000D03*
X172180000Y-77710000D03*
X172180000Y-80250000D03*
%TD*%
D21*
%TO.C,R9*%
X166481000Y-79451200D03*
X164481000Y-79451200D03*
%TD*%
D39*
%TO.C,PS1*%
X134460727Y-67500000D03*
D40*
X137000727Y-67500000D03*
X139540727Y-67500000D03*
X142080727Y-67500000D03*
%TD*%
D11*
%TO.C,R24*%
X179500000Y-147531250D03*
X179500000Y-149531250D03*
%TD*%
D17*
%TO.C,H3*%
X105000000Y-155000000D03*
%TD*%
D41*
%TO.C,U3*%
X179510000Y-86435000D03*
X176970000Y-86435000D03*
X174430000Y-86435000D03*
X171890000Y-86435000D03*
X171890000Y-95965000D03*
X174430000Y-95965000D03*
X176970000Y-95965000D03*
X179510000Y-95965000D03*
%TD*%
D17*
%TO.C,H2*%
X195000000Y-65000000D03*
%TD*%
D19*
%TO.C,R26*%
X174400000Y-83600000D03*
X176400000Y-83600000D03*
%TD*%
D11*
%TO.C,R13*%
X122975000Y-147531250D03*
X122975000Y-149531250D03*
%TD*%
D25*
%TO.C,Q1*%
X162944800Y-124114800D03*
X161044800Y-124114800D03*
X161994800Y-125989800D03*
%TD*%
M02*
