M48
; DRILL file {KiCad 7.0.6+dfsg-1} date qua 26 jul 2023 00:00:55
; FORMAT={-:-/ absolute / inch / decimal}
; #@! TF.CreationDate,2023-07-26T00:00:55-03:00
; #@! TF.GenerationSoftware,Kicad,Pcbnew,7.0.6+dfsg-1
; #@! TF.FileFunction,Plated,1,4,PTH
FMAT,2
INCH
; #@! TA.AperFunction,Plated,PTH,ViaDrill
T1C0.0157
; #@! TA.AperFunction,Plated,PTH,ComponentDrill
T2C0.0315
; #@! TA.AperFunction,Plated,PTH,ComponentDrill
T3C0.0374
; #@! TA.AperFunction,Plated,PTH,ComponentDrill
T4C0.0394
; #@! TA.AperFunction,Plated,PTH,ComponentDrill
T5C0.0402
; #@! TA.AperFunction,Plated,PTH,ComponentDrill
T6C0.0423
; #@! TA.AperFunction,Plated,PTH,ComponentDrill
T7C0.0598
%
G90
G05
T1
X4.3276Y-5.1811
X4.3276Y-5.2811
X4.3276Y-5.3811
X4.4276Y-5.1417
X4.4276Y-5.2313
X4.4276Y-5.3313
X4.4276Y-5.4313
X4.4685Y-3.8583
X4.4685Y-4.4094
X4.5276Y-2.5591
X4.5276Y-2.6591
X4.5276Y-2.7591
X4.5276Y-5.1811
X4.5276Y-5.2815
X4.5276Y-5.3815
X4.5797Y-3.3799
X4.5797Y-3.628
X4.5929Y-4.7159
X4.5929Y-4.8159
X4.6276Y-2.5197
X4.6276Y-2.6093
X4.6276Y-2.7093
X4.6276Y-2.8093
X4.6929Y-4.7661
X4.6929Y-4.8661
X4.7276Y-2.5591
X4.7276Y-2.6594
X4.7276Y-2.7594
X4.8213Y-3.9624
X4.8213Y-4.0624
X4.8213Y-4.1624
X4.87Y-2.51
X4.87Y-2.61
X4.87Y-2.71
X4.87Y-2.81
X4.9213Y-4.0126
X4.9213Y-4.1126
X4.9213Y-4.2126
X4.9606Y-3.8583
X4.9606Y-4.4094
X4.97Y-2.56
X4.97Y-2.66
X4.97Y-2.76
X4.97Y-2.86
X5.0205Y-5.0228
X5.0205Y-5.1228
X5.0205Y-5.2228
X5.0205Y-5.3228
X5.0213Y-4.0628
X5.0213Y-4.1628
X5.0213Y-4.2628
X5.07Y-2.51
X5.07Y-2.61
X5.07Y-2.71
X5.07Y-2.81
X5.1205Y-5.0728
X5.1205Y-5.1728
X5.1205Y-5.2728
X5.1205Y-5.3728
X5.18Y-3.916
X5.18Y-4.016
X5.18Y-4.116
X5.18Y-4.216
X5.2205Y-5.0228
X5.2205Y-5.1228
X5.2205Y-5.2228
X5.2205Y-5.3228
X5.28Y-3.966
X5.28Y-4.066
X5.28Y-4.166
X5.28Y-4.266
X5.38Y-3.916
X5.38Y-4.016
X5.38Y-4.116
X5.38Y-4.216
X5.4724Y-3.8583
X5.4724Y-4.626
X5.548Y-3.9728
X5.548Y-4.0728
X5.548Y-4.1728
X5.6299Y-3.2283
X5.6299Y-3.4764
X5.648Y-4.023
X5.648Y-4.123
X5.648Y-4.223
X5.748Y-4.0732
X5.748Y-4.1732
X5.748Y-4.2732
X5.7913Y-5.1316
X5.7913Y-5.2202
X5.8583Y-5.6686
X5.8622Y-5.3378
X5.8622Y-5.389
X5.8622Y-5.4402
X5.8937Y-5.3634
X5.8976Y-5.4146
X5.9024Y-3.2248
X5.9024Y-3.3248
X5.9024Y-3.4248
X5.9646Y-3.622
X5.9646Y-4.626
X5.9882Y-5.1339
X5.9882Y-5.2224
X6.0024Y-3.275
X6.0024Y-3.375
X6.0024Y-3.475
X6.008Y-4.864
X6.0728Y-4.75
X6.0827Y-4.1339
X6.1024Y-3.3252
X6.1024Y-3.4252
X6.1024Y-3.5252
X6.1417Y-5.4409
X6.1909Y-5.187
X6.2203Y-4.8628
X6.2346Y-2.7402
X6.255Y-2.94
X6.295Y-2.94
X6.3094Y-2.7401
X6.4562Y-3.19
X6.4567Y-5.2461
X6.4762Y-4.8825
X6.4962Y-3.19
X6.595Y-3.225
X6.595Y-3.26
X6.7717Y-3.7185
X6.7787Y-2.7615
X6.812Y-5.0228
X6.812Y-5.1228
X6.812Y-5.2228
X6.812Y-5.3228
X6.859Y-2.7792
X6.882Y-2.86
X6.8866Y-4.2681
X6.8866Y-4.3681
X6.8866Y-4.4681
X6.912Y-5.0728
X6.912Y-5.1728
X6.912Y-5.2728
X6.912Y-5.3728
X6.9685Y-3.4823
X6.9866Y-4.3183
X6.9866Y-4.4183
X6.9866Y-4.5183
X7.012Y-5.0228
X7.012Y-5.1228
X7.012Y-5.2228
X7.012Y-5.3228
X7.0866Y-4.3685
X7.0866Y-4.4685
X7.0866Y-4.5685
X7.2244Y-3.8976
X7.298Y-2.5858
X7.298Y-2.6858
X7.298Y-2.7858
X7.398Y-2.636
X7.398Y-2.736
X7.398Y-2.836
X7.4378Y-5.1811
X7.4378Y-5.2811
X7.4378Y-5.3811
X7.498Y-2.6862
X7.498Y-2.7862
X7.498Y-2.8862
X7.5378Y-5.1417
X7.5378Y-5.2313
X7.5378Y-5.3313
X7.5378Y-5.4313
X7.612Y-2.99
X7.612Y-3.09
X7.612Y-3.19
X7.612Y-3.29
X7.6362Y-4.6923
X7.6362Y-4.7923
X7.6378Y-5.1811
X7.6378Y-5.2815
X7.6378Y-5.3815
X7.712Y-3.04
X7.712Y-3.14
X7.712Y-3.24
X7.712Y-3.34
X7.7362Y-4.7425
X7.7362Y-4.8425
X7.812Y-2.99
X7.812Y-3.09
X7.812Y-3.19
X7.812Y-3.29
T2
X6.7787Y-2.8594
X6.7787Y-2.9594
X6.7787Y-3.0594
X6.7787Y-3.1594
X7.0787Y-2.8594
X7.0787Y-2.9594
X7.0787Y-3.0594
X7.0787Y-3.1594
T3
X4.5463Y-6.0839
X4.6447Y-6.0839
X4.7431Y-6.0839
X4.8415Y-6.0839
X4.94Y-6.0839
X5.3209Y-6.0839
X5.4193Y-6.0839
X5.5177Y-6.0839
X5.6161Y-6.0839
X5.7146Y-6.0839
X5.937Y-2.5541
X6.0354Y-2.5541
X6.0955Y-6.0839
X6.1339Y-2.5541
X6.1939Y-6.0839
X6.2923Y-6.0839
X6.3907Y-6.0839
X6.4892Y-6.0839
X6.5Y-2.5541
X6.5984Y-2.5541
X6.6969Y-2.5541
X6.8701Y-6.0839
X6.9685Y-6.0839
X7.0669Y-6.0839
X7.1654Y-6.0839
X7.2638Y-6.0839
X7.622Y-4.2402
X7.622Y-4.3386
X7.622Y-4.437
X7.622Y-4.5354
X7.6634Y-3.5551
X7.6634Y-3.6535
X7.6634Y-3.752
X7.6634Y-3.8504
X7.6634Y-3.9488
T4
X4.8031Y-3.0315
X4.8031Y-3.2283
T5
X4.2614Y-3.7839
X4.2614Y-4.4839
X4.3614Y-3.7839
X4.3614Y-4.4839
X4.4614Y-3.7839
X4.4614Y-4.4839
X4.5614Y-3.7839
X4.5614Y-4.4839
X4.6614Y-3.7839
X4.6614Y-4.4839
X4.7614Y-3.7839
X4.7614Y-4.4839
X4.8614Y-3.7839
X4.8614Y-4.4839
X4.9614Y-3.7839
X4.9614Y-4.4839
X5.0614Y-3.7839
X5.0614Y-4.4839
X5.1614Y-3.7839
X5.1614Y-4.4839
X5.2614Y-3.7839
X5.2614Y-4.4839
X5.3614Y-3.7839
X5.3614Y-4.4839
X5.4614Y-3.7839
X5.4614Y-4.4839
X5.5614Y-3.7839
X5.5614Y-4.4839
X5.6614Y-3.7839
X5.6614Y-4.4839
X5.7614Y-3.7839
X5.7614Y-4.4839
X5.8614Y-3.7839
X5.8614Y-4.4839
X5.9614Y-3.7839
X5.9614Y-4.4839
X6.0614Y-3.7839
X6.0614Y-4.4839
X6.1524Y-4.0339
X6.1524Y-4.1339
X6.1524Y-4.2339
X6.1614Y-3.7839
X6.1614Y-4.4839
T6
X5.2937Y-2.6575
X5.3937Y-2.6575
X5.4937Y-2.6575
X5.5937Y-2.6575
T7
X4.2756Y-3.026
X4.2756Y-3.226
T0
M30
