%TF.GenerationSoftware,KiCad,Pcbnew,7.0.6+dfsg-1*%
%TF.CreationDate,2023-07-26T00:01:03-03:00*%
%TF.ProjectId,DMX_servo_controller_hardware,444d585f-7365-4727-966f-5f636f6e7472,rev?*%
%TF.SameCoordinates,Original*%
%TF.FileFunction,Soldermask,Bot*%
%TF.FilePolarity,Negative*%
%FSLAX46Y46*%
G04 Gerber Fmt 4.6, Leading zero omitted, Abs format (unit mm)*
G04 Created by KiCad (PCBNEW 7.0.6+dfsg-1) date 2023-07-26 00:01:03*
%MOMM*%
%LPD*%
G01*
G04 APERTURE LIST*
G04 Aperture macros list*
%AMRoundRect*
0 Rectangle with rounded corners*
0 $1 Rounding radius*
0 $2 $3 $4 $5 $6 $7 $8 $9 X,Y pos of 4 corners*
0 Add a 4 corners polygon primitive as box body*
4,1,4,$2,$3,$4,$5,$6,$7,$8,$9,$2,$3,0*
0 Add four circle primitives for the rounded corners*
1,1,$1+$1,$2,$3*
1,1,$1+$1,$4,$5*
1,1,$1+$1,$6,$7*
1,1,$1+$1,$8,$9*
0 Add four rect primitives between the rounded corners*
20,1,$1+$1,$2,$3,$4,$5,0*
20,1,$1+$1,$4,$5,$6,$7,0*
20,1,$1+$1,$6,$7,$8,$9,0*
20,1,$1+$1,$8,$9,$2,$3,0*%
G04 Aperture macros list end*
%ADD10C,1.200000*%
%ADD11RoundRect,0.250000X-0.725000X0.600000X-0.725000X-0.600000X0.725000X-0.600000X0.725000X0.600000X0*%
%ADD12O,1.950000X1.700000*%
%ADD13RoundRect,0.250000X-0.600000X-0.725000X0.600000X-0.725000X0.600000X0.725000X-0.600000X0.725000X0*%
%ADD14O,1.700000X1.950000*%
%ADD15C,4.300000*%
%ADD16R,2.000000X2.000000*%
%ADD17C,2.000000*%
%ADD18RoundRect,0.250000X0.725000X-0.600000X0.725000X0.600000X-0.725000X0.600000X-0.725000X-0.600000X0*%
%ADD19R,3.000000X3.000000*%
%ADD20C,3.000000*%
%ADD21O,1.800000X1.800000*%
%ADD22O,1.500000X1.500000*%
%ADD23O,1.700000X1.700000*%
%ADD24R,1.700000X1.700000*%
%ADD25R,1.600000X1.600000*%
%ADD26O,1.600000X1.600000*%
%ADD27R,1.750000X2.250000*%
%ADD28O,1.750000X2.250000*%
G04 APERTURE END LIST*
D10*
%TO.C,J5*%
X192650000Y-88700000D03*
D11*
X194650000Y-90300000D03*
D12*
X194650000Y-92800000D03*
X194650000Y-95300000D03*
X194650000Y-97800000D03*
X194650000Y-100300000D03*
%TD*%
D10*
%TO.C,J9*%
X172900000Y-156531250D03*
D13*
X174500000Y-154531250D03*
D14*
X177000000Y-154531250D03*
X179500000Y-154531250D03*
X182000000Y-154531250D03*
X184500000Y-154531250D03*
%TD*%
D15*
%TO.C,H1*%
X105000000Y-65000000D03*
%TD*%
D10*
%TO.C,J1*%
X149200000Y-66875000D03*
D13*
X150800000Y-64875000D03*
D14*
X153300000Y-64875000D03*
X155800000Y-64875000D03*
%TD*%
D10*
%TO.C,J2*%
X163500000Y-66875000D03*
D13*
X165100000Y-64875000D03*
D14*
X167600000Y-64875000D03*
X170100000Y-64875000D03*
%TD*%
D16*
%TO.C,C3*%
X122000000Y-77000000D03*
D17*
X122000000Y-82000000D03*
%TD*%
D10*
%TO.C,J4*%
X195600000Y-116800000D03*
D18*
X193600000Y-115200000D03*
D12*
X193600000Y-112700000D03*
X193600000Y-110200000D03*
X193600000Y-107700000D03*
%TD*%
D10*
%TO.C,J7*%
X133550000Y-156531250D03*
D13*
X135150000Y-154531250D03*
D14*
X137650000Y-154531250D03*
X140150000Y-154531250D03*
X142650000Y-154531250D03*
X145150000Y-154531250D03*
%TD*%
D10*
%TO.C,J8*%
X153225000Y-156531250D03*
D13*
X154825000Y-154531250D03*
D14*
X157325000Y-154531250D03*
X159825000Y-154531250D03*
X162325000Y-154531250D03*
X164825000Y-154531250D03*
%TD*%
D10*
%TO.C,J6*%
X113875000Y-156531250D03*
D13*
X115475000Y-154531250D03*
D14*
X117975000Y-154531250D03*
X120475000Y-154531250D03*
X122975000Y-154531250D03*
X125475000Y-154531250D03*
%TD*%
D19*
%TO.C,J3*%
X108600000Y-76860000D03*
D20*
X108600000Y-81940000D03*
%TD*%
D21*
%TO.C,U4*%
X108370000Y-107725000D03*
D22*
X111400000Y-107425000D03*
X111400000Y-102575000D03*
D21*
X108370000Y-102275000D03*
D23*
X108240000Y-113890000D03*
X110780000Y-113890000D03*
D24*
X113320000Y-113890000D03*
D23*
X115860000Y-113890000D03*
X118400000Y-113890000D03*
X120940000Y-113890000D03*
X123480000Y-113890000D03*
D24*
X126020000Y-113890000D03*
D23*
X128560000Y-113890000D03*
X131100000Y-113890000D03*
X133640000Y-113890000D03*
X136180000Y-113890000D03*
D24*
X138720000Y-113890000D03*
D23*
X141260000Y-113890000D03*
X143800000Y-113890000D03*
X146340000Y-113890000D03*
X148880000Y-113890000D03*
D24*
X151420000Y-113890000D03*
D23*
X153960000Y-113890000D03*
X156500000Y-113890000D03*
X156500000Y-96110000D03*
X153960000Y-96110000D03*
D24*
X151420000Y-96110000D03*
D23*
X148880000Y-96110000D03*
X146340000Y-96110000D03*
X143800000Y-96110000D03*
X141260000Y-96110000D03*
D24*
X138720000Y-96110000D03*
D23*
X136180000Y-96110000D03*
X133640000Y-96110000D03*
X131100000Y-96110000D03*
X128560000Y-96110000D03*
D24*
X126020000Y-96110000D03*
D23*
X123480000Y-96110000D03*
X120940000Y-96110000D03*
X118400000Y-96110000D03*
X115860000Y-96110000D03*
D24*
X113320000Y-96110000D03*
D23*
X110780000Y-96110000D03*
X108240000Y-96110000D03*
X156270000Y-107540000D03*
D24*
X156270000Y-105000000D03*
D23*
X156270000Y-102460000D03*
%TD*%
D15*
%TO.C,H4*%
X195000000Y-155000000D03*
%TD*%
D25*
%TO.C,U2*%
X179800000Y-80250000D03*
D26*
X179800000Y-77710000D03*
X179800000Y-75170000D03*
X179800000Y-72630000D03*
X172180000Y-72630000D03*
X172180000Y-75170000D03*
X172180000Y-77710000D03*
X172180000Y-80250000D03*
%TD*%
D27*
%TO.C,PS1*%
X134460727Y-67500000D03*
D28*
X137000727Y-67500000D03*
X139540727Y-67500000D03*
X142080727Y-67500000D03*
%TD*%
D15*
%TO.C,H3*%
X105000000Y-155000000D03*
%TD*%
%TO.C,H2*%
X195000000Y-65000000D03*
%TD*%
M02*
